<?xml version="1.0" encoding="UTF-8"?>
<svg width="143px" height="225px" viewBox="0 0 143 225" version="1.1" xmlns="http://www.w3.org/2000/svg" xmlns:xlink="http://www.w3.org/1999/xlink">
    <!-- Generator: Sketch 61.1 (89650) - https://sketch.com -->
    <title>section_02</title>
    <desc>Created with Sketch.</desc>
    <defs>
        <path d="M14.9838499,39.85697 C5.34735258,34.3729779 -0.0149097998,27.9576971 2.41867838e-05,22.9585255 L0.0538193888,4.93254592 C0.0388541623,9.93198077 5.40111654,16.3469983 15.037891,21.8309961 C17.8302828,23.4202402 20.7773142,24.8146943 23.7758926,25.9980171 C25.8627105,26.8215231 27.9744703,27.5424364 30.0765303,28.155736 L30.0227664,46.1817156 C27.9207157,45.5684187 25.8089653,44.8472458 23.7221567,44.0239128 M30.0227941,46.1816899 L30.0765581,28.1557103 C31.6334864,28.6098153 33.1848721,29.0048346 34.7168588,29.3381131 C35.9625757,29.6093168 37.195544,29.8395508 38.4080045,30.0280289 L38.3542406,48.0540085 C37.1417892,47.8655318 35.9088302,47.6350365 34.6631232,47.363999 M38.3543237,48.0538259 L38.4080877,30.0281096 C39.4370856,30.1880593 40.4516725,30.3179627 41.4465829,30.4166581 L41.4305303,35.7987848 L41.4466661,30.4165282 C42.3398684,30.5054926 43.2175512,30.5691266 44.0763889,30.6076249 L44.022625,48.6336045 C43.1638495,48.595109 42.2862317,48.5314814 41.3928193,48.4425214 M46.420858,30.6482028 C47.1685455,30.639392 47.897666,30.6091381 48.6062797,30.5568747 C49.3736238,30.500236 50.1163053,30.4181389 50.8315536,30.3094156 C51.8048476,30.1614897 52.7268719,29.9648747 53.5895895,29.7183325 L53.5680839,36.9287244 L53.5897003,29.7184401 C54.663871,29.4112284 55.6457562,29.0268198 56.5201134,28.5620043 C56.5660894,28.5376935 56.6117885,28.513114 56.6569343,28.4882603 C57.285751,28.1434159 57.838633,27.7656987 58.3175202,27.35855 C58.6475754,27.0778982 58.9424365,26.7830666 59.2023808,26.4754057 L59.1486169,44.5013853 C58.8886728,44.8090459 58.5938119,45.1036141 58.263757,45.3842942 C57.7851673,45.791666 57.2320358,46.1693621 56.6032536,46.514173 C56.5580807,46.5388002 56.5123536,46.5633948 56.4666266,46.5879895 C55.5920375,47.0525121 54.6099317,47.4371625 53.5358261,47.744103 C52.6731407,47.9908449 51.7511537,48.1874544 50.7779006,48.3353592 C50.0629128,48.4438498 49.319936,48.5262086 48.5525725,48.5827922 C47.8442874,48.6351167 47.1149455,48.6651021 46.3670391,48.6739107 C45.603812,48.6828303 44.8214632,48.6690761 44.0227635,48.6333967 L44.0765275,30.6076804 C44.8752272,30.6433597 45.657576,30.6568507 46.4208025,30.6480963 L46.4100192,34.2635301 M59.1486169,44.501201 L59.2023808,26.4754847 C59.4337876,26.2014518 59.6377581,25.9171126 59.8145694,25.6235258 L59.8091625,27.4363616 L59.8145972,25.6236053 C59.9883601,25.3346945 60.1357953,25.0368165 60.2571799,24.7305035 L60.2034159,42.7564831 C60.0820898,43.0623853 59.9344613,43.360381 59.7608073,43.6488986 M60.6858161,22.6075773 C60.6874856,22.5479989 60.688317,22.4903601 60.6885941,22.4324466 L60.6348301,40.4584262 C60.6345565,40.5153553 60.6337423,40.57253 60.6321208,40.6291842 C60.6210356,41.0203011 60.5770181,41.4003812 60.4995083,41.7703056 C60.4288366,42.1080372 60.3301769,42.4369331 60.2035268,42.7563011 L60.2572907,24.7305848 C60.383857,24.4111652 60.4824699,24.0827561 60.5531292,23.7458829 M14.9838499,60.9184971 C5.34735258,55.434505 -0.0149097998,49.0192242 2.41867838e-05,44.0200526 L0.0538193888,25.9940731 C0.0388541623,30.9935079 5.40111654,37.4085255 15.037891,42.8925232 C17.8302828,44.4817674 20.7773142,45.8762214 23.7758926,47.0595443 C25.8627105,47.8830502 27.9744703,48.6039635 30.0765303,49.2172632 L30.0227664,67.2432428 C27.9207157,66.6299458 25.8089653,65.9087729 23.7221567,65.08544 M30.0227941,67.243217 L30.0765581,49.2172374 C31.6334865,49.6713425 33.1848723,50.0663618 34.7168591,50.3996403 C35.9625757,50.6708439 37.195544,50.9010779 38.4080045,51.089556 L38.3542406,69.1155356 C37.1417892,68.9270589 35.9088302,68.6965637 34.6631232,68.4255261 M38.3543237,69.115353 L38.4080877,51.0896367 C39.4370856,51.2495865 40.4516725,51.3794899 41.4465829,51.4781852 L41.4305303,56.8603119 L41.4466661,51.4780553 C42.3398684,51.5670197 43.2175512,51.6306537 44.0763889,51.6691521 L44.022625,69.6951316 C43.1638495,69.6566361 42.2862317,69.5930085 41.3928193,69.5040485 M46.420858,51.7097299 C47.1685455,51.7009191 47.897666,51.6706653 48.6062797,51.6184019 C49.3736238,51.5617631 50.1163053,51.4796661 50.8315536,51.3709428 C51.8048476,51.2230169 52.7268719,51.0264018 53.5895895,50.7798597 L53.5680839,57.9902515 L53.5897003,50.7799673 C54.663871,50.4727556 55.6457562,50.088347 56.5201134,49.6235314 C56.5660894,49.5992206 56.6117885,49.5746412 56.6569343,49.5497874 C57.285751,49.204943 57.838633,48.8272258 58.3175202,48.4200771 C58.6475754,48.1394254 58.9424365,47.8445938 59.2023808,47.5369328 L59.1486169,65.5629124 C58.8886728,65.8705731 58.5938119,66.1651412 58.263757,66.4458214 C57.7851673,66.8531932 57.2320358,67.2308893 56.6032536,67.5757002 C56.5580807,67.6003273 56.5123536,67.624922 56.4666266,67.6495167 C55.5920375,68.1140392 54.6099317,68.4986896 53.5358261,68.8056302 C52.6731407,69.052372 51.7511537,69.2489815 50.7779006,69.3968863 C50.0629128,69.505377 49.319936,69.5877358 48.5525725,69.6443194 C47.8442874,69.6966438 47.1149455,69.7266293 46.3670391,69.7354379 C45.603812,69.7443575 44.8214632,69.7306032 44.0227635,69.6949239 L44.0765275,51.6692076 C44.8752272,51.7048869 45.657576,51.7183779 46.4208025,51.7096235 L46.4100192,55.3250572 M59.1486169,65.5627281 L59.2023808,47.5370118 C59.4337876,47.262979 59.6377581,46.9786397 59.8145694,46.6850529 L59.8091625,48.4978887 L59.8145972,46.6851325 C59.9883601,46.3962216 60.1357953,46.0983436 60.2571799,45.7920306 L60.2034159,63.8180102 C60.0820898,64.1239124 59.9344613,64.4219081 59.7608073,64.7104257 M60.6858161,43.6691044 C60.6874856,43.609526 60.688317,43.5518872 60.6885941,43.4939737 L60.6348301,61.5199533 C60.6345565,61.5768824 60.6337423,61.6340571 60.6321208,61.6907113 C60.6210356,62.0818282 60.5770181,62.4619083 60.4995083,62.8318328 C60.4288366,63.1695644 60.3301769,63.4984603 60.2035268,63.8178282 L60.2572907,45.7921119 C60.383857,45.4726923 60.4824699,45.1442832 60.5531292,44.8074101 M14.9838499,81.9800242 C5.34735258,76.4960322 -0.0149097998,70.0807514 2.41867838e-05,65.0815798 L0.0538193888,47.0556002 C0.0388541623,52.0550351 5.40111654,58.4700526 15.037891,63.9540504 C17.8302828,65.5432945 20.7773142,66.9377485 23.7758926,68.1210714 C25.8627105,68.9445773 27.9744703,69.6654907 30.0765303,70.2787903 L30.0227664,88.3047699 C27.9207157,87.691473 25.8089653,86.9703001 23.7221567,86.1469671 M30.0227941,88.3047441 L30.0765581,70.2787646 C31.6334864,70.7328696 33.1848721,71.1278889 34.7168588,71.4611674 C35.9625757,71.732371 37.195544,71.962605 38.4080045,72.1510832 L38.3542406,90.1770627 C37.1417892,89.988586 35.9088302,89.7580908 34.6631232,89.4870533 M38.3543237,90.1768802 L38.4080877,72.1511639 C39.4370856,72.3111136 40.4516725,72.441017 41.4465829,72.5397124 L41.4305303,77.9218391 L41.4466661,72.5395824 C42.3398684,72.6285469 43.2175512,72.6921809 44.0763889,72.7306792 L44.022625,90.7566588 C43.1638495,90.7181632 42.2862317,90.6545357 41.3928193,90.5655757 M46.4100192,76.3865844 L46.420858,72.771257 C47.1685455,72.7624463 47.897666,72.7321924 48.6062797,72.679929 C49.3736238,72.6232903 50.1163053,72.5411932 50.8315536,72.4324699 C51.8048476,72.284544 52.7268719,72.0879289 53.5895895,71.8413868 L53.5680839,79.0517786 L53.5897003,71.8414944 C54.663871,71.5342827 55.6457562,71.1498741 56.5201134,70.6850585 C56.5660894,70.6607478 56.6117885,70.6361683 56.6569343,70.6113145 C57.285751,70.2664702 57.838633,69.888753 58.3175202,69.4816043 C58.6475754,69.2009525 58.9424365,68.9061209 59.2023808,68.59846 L59.1486169,86.6244395 C58.8886728,86.9321002 58.5938119,87.2266684 58.263757,87.5073485 C57.7851673,87.9147203 57.2320358,88.2924164 56.6032536,88.6372273 C56.5580807,88.6618544 56.5123536,88.6864491 56.4666266,88.7110438 C55.5920375,89.1755664 54.6099317,89.5602167 53.5358261,89.8671573 C52.6731407,90.1138992 51.7511537,90.3105087 50.7779006,90.4584135 C50.0629128,90.5669041 49.319936,90.6492629 48.5525725,90.7058465 C47.8442874,90.7581709 47.1149455,90.7881564 46.3670391,90.796965 C45.603812,90.8058846 44.8214632,90.7921303 44.0227635,90.756451 L44.0765275,72.7307347 C44.8752272,72.766414 45.657576,72.779905 46.4208025,72.7711506 M59.1486169,86.6242553 L59.2023808,68.5985389 C59.4337876,68.3245061 59.6377581,68.0401669 59.8145694,67.7465801 L59.8091625,69.5594159 L59.8145972,67.7466596 C59.9883601,67.4577488 60.1357953,67.1598708 60.2571799,66.8535578 L60.2034159,84.8795374 C60.0820898,85.1854396 59.9344613,85.4834353 59.7608073,85.7719528 M60.6858161,64.7306316 C60.6874856,64.6710532 60.688317,64.6134144 60.6885941,64.5555009 L60.6348301,82.5814805 C60.6345565,82.6384096 60.6337423,82.6955843 60.6321208,82.7522385 C60.6210356,83.1433553 60.5770181,83.5234355 60.4995083,83.8933599 C60.4288366,84.2310915 60.3301769,84.5599874 60.2035268,84.8793554 L60.2572907,66.853639 C60.383857,66.5342195 60.4824699,66.2058104 60.5531292,65.8689372 M14.9838499,103.041551 C5.34735258,97.5575593 -0.0149097998,91.1422785 2.41867838e-05,86.1431069 L0.0538193888,68.1171273 C0.0388541623,73.1165622 5.40111654,79.5315797 15.037891,85.0155775 C17.8302828,86.6048216 20.7773142,87.9992757 23.7758926,89.1825985 C25.8627105,90.0061045 27.9744703,90.7270178 30.0765303,91.3403175 L30.0227664,109.366297 C27.9207157,108.753 25.8089653,108.031827 23.7221567,107.208494 M30.0227941,109.366271 L30.0765581,91.3402917 C31.6334864,91.7943967 33.1848721,92.189416 34.7168588,92.5226945 C35.9625757,92.7938982 37.195544,93.0241322 38.4080045,93.2126103 L38.3542406,111.23859 C37.1417892,111.050113 35.9088302,110.819618 34.6631232,110.54858 M38.3543237,111.238407 L38.4080877,93.212691 C39.4370856,93.3726408 40.4516725,93.5025441 41.4465829,93.6012395 L41.4305303,98.9833662 L41.4466661,93.6011096 C42.3398684,93.690074 43.2175512,93.753708 44.0763889,93.7922063 L44.022625,111.818186 C43.1638495,111.77969 42.2862317,111.716063 41.3928193,111.627103 M46.4100192,97.4481115 L46.420858,93.8327842 C47.1685455,93.8239734 47.897666,93.7937196 48.6062797,93.7414561 C49.3736238,93.6848174 50.1163053,93.6027204 50.8315536,93.493997 C51.8048476,93.3460712 52.7268719,93.1494561 53.5895895,92.902914 L53.5680839,100.113306 L53.5897003,92.9030215 C54.663871,92.5958099 55.6457562,92.2114013 56.5201134,91.7465857 C56.5660894,91.7222749 56.6117885,91.6976955 56.6569343,91.6728417 C57.285751,91.3279973 57.838633,90.9502801 58.3175202,90.5431314 C58.6475754,90.2624797 58.9424365,89.967648 59.2023808,89.6599871 L59.1486169,107.685967 C58.8886728,107.993627 58.5938119,108.288196 58.263757,108.568876 C57.7851673,108.976247 57.2320358,109.353944 56.6032536,109.698754 C56.5580807,109.723382 56.5123536,109.747976 56.4666266,109.772571 C55.5920375,110.237094 54.6099317,110.621744 53.5358261,110.928684 C52.6731407,111.175426 51.7511537,111.372036 50.7779006,111.519941 C50.0629128,111.628431 49.319936,111.71079 48.5525725,111.767374 C47.8442874,111.819698 47.1149455,111.849684 46.3670391,111.858492 C45.603812,111.867412 44.8214632,111.853657 44.0227635,111.817978 L44.0765275,93.7922619 C44.8752272,93.8279412 45.657576,93.8414322 46.4208025,93.8326777 M59.1486169,107.685782 L59.2023808,89.6600661 C59.4337876,89.3860333 59.6377581,89.101694 59.8145694,88.8081072 L59.8091625,90.620943 L59.8145972,88.8081867 C59.9883601,88.5192759 60.1357953,88.2213979 60.2571799,87.9150849 L60.2034159,105.941064 C60.0820898,106.246967 59.9344613,106.544962 59.7608073,106.83348 M60.6858161,85.7921587 C60.6874856,85.7325803 60.688317,85.6749415 60.6885941,85.617028 L60.6348301,103.643008 C60.6345565,103.699937 60.6337423,103.757111 60.6321208,103.813766 C60.6210356,104.204882 60.5770181,104.584963 60.4995083,104.954887 C60.4288366,105.292619 60.3301769,105.621515 60.2035268,105.940882 L60.2572907,87.9151662 C60.383857,87.5957466 60.4824699,87.2673375 60.5531292,86.9304643 M14.9838499,124.103079 C5.34735258,118.619086 -0.0149097998,112.203806 2.41867838e-05,107.204634 L0.0538193888,89.1786545 C0.0388541623,94.1780893 5.40111654,100.593107 15.037891,106.077105 C17.8302828,107.666349 20.7773142,109.060803 23.7758926,110.244126 C25.8627105,111.067632 27.9744703,111.788545 30.0765303,112.401845 L30.0227664,130.427824 C27.9207157,129.814527 25.8089653,129.093354 23.7221567,128.270021 M30.0227941,130.427798 L30.0765581,112.401819 C31.6334864,112.855924 33.1848721,113.250943 34.7168588,113.584222 C35.9625757,113.855425 37.195544,114.085659 38.4080045,114.274137 L38.3542406,132.300117 C37.1417892,132.11164 35.9088302,131.881145 34.6631232,131.610108 M38.3543237,132.299934 L38.4080877,114.274218 C39.4370856,114.434168 40.4516725,114.564071 41.4465829,114.662767 L41.4305303,120.044893 L41.4466661,114.662637 C42.3398684,114.751601 43.2175512,114.815235 44.0763889,114.853733 L44.022625,132.879713 C43.1638495,132.841218 42.2862317,132.77759 41.3928193,132.68863 M46.4100192,118.509639 L46.420858,114.894311 C47.1685455,114.885501 47.897666,114.855247 48.6062797,114.802983 C49.3736238,114.746345 50.1163053,114.664248 50.8315536,114.555524 C51.8048476,114.407598 52.7268719,114.210983 53.5895895,113.964441 L53.5680839,121.174833 L53.5897003,113.964549 C54.663871,113.657337 55.6457562,113.272928 56.5201134,112.808113 C56.5660894,112.783802 56.6117885,112.759223 56.6569343,112.734369 C57.285751,112.389524 57.838633,112.011807 58.3175202,111.604659 C58.6475754,111.324007 58.9424365,111.029175 59.2023808,110.721514 L59.1486169,128.747494 C58.8886728,129.055155 58.5938119,129.349723 58.263757,129.630403 C57.7851673,130.037775 57.2320358,130.415471 56.6032536,130.760282 C56.5580807,130.784909 56.5123536,130.809503 56.4666266,130.834098 C55.5920375,131.298621 54.6099317,131.683271 53.5358261,131.990212 C52.6731407,132.236953 51.7511537,132.433563 50.7779006,132.581468 C50.0629128,132.689958 49.319936,132.772317 48.5525725,132.828901 C47.8442874,132.881225 47.1149455,132.911211 46.3670391,132.920019 C45.603812,132.928939 44.8214632,132.915185 44.0227635,132.879505 L44.0765275,114.853789 C44.8752272,114.889468 45.657576,114.902959 46.4208025,114.894205 M59.1486169,128.74731 L59.2023808,110.721593 C59.4337876,110.44756 59.6377581,110.163221 59.8145694,109.869634 L59.8091625,111.68247 L59.8145972,109.869714 C59.9883601,109.580803 60.1357953,109.282925 60.2571799,108.976612 L60.2034159,127.002592 C60.0820898,127.308494 59.9344613,127.60649 59.7608073,127.895007 M60.6858161,106.853686 C60.6874856,106.794107 60.688317,106.736469 60.6885941,106.678555 L60.6348301,124.704535 C60.6345565,124.761464 60.6337423,124.818639 60.6321208,124.875293 C60.6210356,125.26641 60.5770181,125.64649 60.4995083,126.016414 C60.4288366,126.354146 60.3301769,126.683042 60.2035268,127.00241 L60.2572907,108.976693 C60.383857,108.657274 60.4824699,108.328865 60.5531292,107.991991 M14.9838499,145.164606 C5.34735258,139.680614 -0.0149097998,133.265333 2.41867838e-05,128.266161 L0.0538193888,110.240182 C0.0388541623,115.239616 5.40111654,121.654634 15.037891,127.138632 C17.8302828,128.727876 20.7773142,130.12233 23.7758926,131.305653 C25.8627105,132.129159 27.9744703,132.850072 30.0765303,133.463372 L30.0227664,151.489351 C27.9207157,150.876054 25.8089653,150.154881 23.7221567,149.331549 M30.0227941,151.489326 L30.0765581,133.463346 C31.6334864,133.917451 33.1848721,134.31247 34.7168588,134.645749 C35.9625757,134.916952 37.195544,135.147186 38.4080045,135.335665 L38.3542406,153.361644 C37.1417892,153.173167 35.9088302,152.942672 34.6631232,152.671635 M38.3543237,153.361462 L38.4080877,135.335745 C39.4370856,135.495695 40.4516725,135.625598 41.4465829,135.724294 L41.4305303,141.106421 L41.4466661,135.724164 C42.3398684,135.813128 43.2175512,135.876762 44.0763889,135.915261 L44.022625,153.94124 C43.1638495,153.902745 42.2862317,153.839117 41.3928193,153.750157 M46.420858,135.955838 C47.1685455,135.947028 47.897666,135.916774 48.6062797,135.86451 C49.3736238,135.807872 50.1163053,135.725775 50.8315536,135.617051 C51.8048476,135.469125 52.7268719,135.27251 53.5895895,135.025968 L53.5680839,142.23636 L53.5897003,135.026076 C54.663871,134.718864 55.6457562,134.334456 56.5201134,133.86964 C56.5660894,133.845329 56.6117885,133.82075 56.6569343,133.795896 C57.285751,133.451052 57.838633,133.073334 58.3175202,132.666186 C58.6475754,132.385534 58.9424365,132.090702 59.2023808,131.783041 L59.1486169,149.809021 C58.8886728,150.116682 58.5938119,150.41125 58.263757,150.69193 C57.7851673,151.099302 57.2320358,151.476998 56.6032536,151.821809 C56.5580807,151.846436 56.5123536,151.871031 56.4666266,151.895625 C55.5920375,152.360148 54.6099317,152.744798 53.5358261,153.051739 C52.6731407,153.298481 51.7511537,153.49509 50.7779006,153.642995 C50.0629128,153.751486 49.319936,153.833844 48.5525725,153.890428 C47.8442874,153.942752 47.1149455,153.972738 46.3670391,153.981546 C45.603812,153.990466 44.8214632,153.976712 44.0227635,153.941032 L44.0765275,135.915316 C44.8752272,135.950995 45.657576,135.964486 46.4208025,135.955732 L46.4100192,139.571166 M59.1486169,149.808837 L59.2023808,131.78312 C59.4337876,131.509088 59.6377581,131.224748 59.8145694,130.931161 L59.8091625,132.743997 L59.8145972,130.931241 C59.9883601,130.64233 60.1357953,130.344452 60.2571799,130.038139 L60.2034159,148.064119 C60.0820898,148.370021 59.9344613,148.668017 59.7608073,148.956534 M60.6858161,127.915213 C60.6874856,127.855635 60.688317,127.797996 60.6885941,127.740082 L60.6348301,145.766062 C60.6345565,145.822991 60.6337423,145.880166 60.6321208,145.93682 C60.6210356,146.327937 60.5770181,146.708017 60.4995083,147.077941 C60.4288366,147.415673 60.3301769,147.744569 60.2035268,148.063937 L60.2572907,130.03822 C60.383857,129.718801 60.4824699,129.390392 60.5531292,129.053519 M14.9838499,166.226133 C5.34735258,160.742141 -0.0149097998,154.32686 2.41867838e-05,149.327688 L0.0538193888,131.301709 C0.0388541623,136.301144 5.40111654,142.716161 15.037891,148.200159 C17.8302828,149.789403 20.7773142,151.183857 23.7758926,152.36718 C25.8627105,153.190686 27.9744703,153.911599 30.0765303,154.524899 L30.0227664,172.550878 C27.9207157,171.937582 25.8089653,171.216409 23.7221567,170.393076 M30.0227941,172.550853 L30.0765581,154.524873 C31.6334864,154.978978 33.1848721,155.373997 34.7168588,155.707276 C35.9625757,155.97848 37.195544,156.208714 38.4080045,156.397192 L38.3542406,174.423171 C37.1417892,174.234695 35.9088302,174.004199 34.6631232,173.733162 M38.3543237,174.422989 L38.4080877,156.397272 C39.4370856,156.557222 40.4516725,156.687126 41.4465829,156.785821 L41.4305303,162.167948 L41.4466661,156.785691 C42.3398684,156.874655 43.2175512,156.938289 44.0763889,156.976788 L44.022625,175.002767 C43.1638495,174.964272 42.2862317,174.900644 41.3928193,174.811684 M46.420858,157.017366 C47.1685455,157.008555 47.897666,156.978301 48.6062797,156.926038 C49.3736238,156.869399 50.1163053,156.787302 50.8315536,156.678578 C51.8048476,156.530653 52.7268719,156.334038 53.5895895,156.087495 L53.5680839,163.297887 L53.5897003,156.087603 C54.663871,155.780391 55.6457562,155.395983 56.5201134,154.931167 C56.5660894,154.906856 56.6117885,154.882277 56.6569343,154.857423 C57.285751,154.512579 57.838633,154.134862 58.3175202,153.727713 C58.6475754,153.447061 58.9424365,153.152229 59.2023808,152.844569 L59.1486169,170.870548 C58.8886728,171.178209 58.5938119,171.472777 58.263757,171.753457 C57.7851673,172.160829 57.2320358,172.538525 56.6032536,172.883336 C56.5580807,172.907963 56.5123536,172.932558 56.4666266,172.957152 C55.5920375,173.421675 54.6099317,173.806325 53.5358261,174.113266 C52.6731407,174.360008 51.7511537,174.556617 50.7779006,174.704522 C50.0629128,174.813013 49.319936,174.895371 48.5525725,174.951955 C47.8442874,175.00428 47.1149455,175.034265 46.3670391,175.043074 C45.603812,175.051993 44.8214632,175.038239 44.0227635,175.00256 L44.0765275,156.976843 C44.8752272,157.012523 45.657576,157.026014 46.4208025,157.017259 L46.4100192,160.632693 M59.1486169,170.870364 L59.2023808,152.844648 C59.4337876,152.570615 59.6377581,152.286275 59.8145694,151.992689 L59.8091625,153.805524 L59.8145972,151.992768 C59.9883601,151.703857 60.1357953,151.405979 60.2571799,151.099666 L60.2034159,169.125646 C60.0820898,169.431548 59.9344613,169.729544 59.7608073,170.018061 M60.6858161,148.97674 C60.6874856,148.917162 60.688317,148.859523 60.6885941,148.801609 L60.6348301,166.827589 C60.6345565,166.884518 60.6337423,166.941693 60.6321208,166.998347 C60.6210356,167.389464 60.5770181,167.769544 60.4995083,168.139468 C60.4288366,168.4772 60.3301769,168.806096 60.2035268,169.125464 L60.2572907,151.099748 C60.383857,150.780328 60.4824699,150.451919 60.5531292,150.115046 M14.9838499,187.28766 C5.34735258,181.803668 -0.0149097998,175.388387 2.41867838e-05,170.389215 L0.0538193888,152.363236 C0.0388541623,157.362671 5.40111654,163.777688 15.037891,169.261686 C17.8302828,170.85093 20.7773142,172.245384 23.7758926,173.428707 C25.8627105,174.252213 27.9744703,174.973126 30.0765303,175.586426 L30.0227664,193.612406 C27.9207157,192.999109 25.8089653,192.277936 23.7221567,191.454603 M30.0227941,193.61238 L30.0765581,175.5864 C31.6334864,176.040505 33.1848721,176.435525 34.7168588,176.768803 C35.9625757,177.040007 37.195544,177.270241 38.4080045,177.458719 L38.3542406,195.484698 C37.1417892,195.296222 35.9088302,195.065727 34.6631232,194.794689 M38.3543237,195.484516 L38.4080877,177.4588 C39.4370856,177.618749 40.4516725,177.748653 41.4465829,177.847348 L41.4305303,183.229475 L41.4466661,177.847218 C42.3398684,177.936183 43.2175512,177.999817 44.0763889,178.038315 L44.022625,196.064294 C43.1638495,196.025799 42.2862317,195.962171 41.3928193,195.873211 M46.420858,178.078893 C47.1685455,178.070082 47.897666,178.039828 48.6062797,177.987565 C49.3736238,177.930926 50.1163053,177.848829 50.8315536,177.740106 C51.8048476,177.59218 52.7268719,177.395565 53.5895895,177.149023 L53.5680839,184.359414 L53.5897003,177.14913 C54.663871,176.841918 55.6457562,176.45751 56.5201134,175.992694 C56.5660896,175.968383 56.6117891,175.943804 56.6569351,175.91895 C57.285751,175.574106 57.838633,175.196389 58.3175202,174.78924 C58.6475754,174.508588 58.9424365,174.213757 59.2023808,173.906096 L59.1486169,191.932075 C58.8886728,192.239736 58.5938119,192.534304 58.263757,192.814984 C57.7851673,193.222356 57.2320358,193.600052 56.6032536,193.944863 C56.5580807,193.96949 56.5123536,193.994085 56.4666266,194.01868 C55.5920375,194.483202 54.6099317,194.867852 53.5358261,195.174793 C52.6731407,195.421535 51.7511537,195.618144 50.7779006,195.766049 C50.0629128,195.87454 49.319936,195.956899 48.5525725,196.013482 C47.8442874,196.065807 47.1149455,196.095792 46.3670391,196.104601 C45.603812,196.11352 44.8214632,196.099766 44.0227635,196.064087 L44.0765275,178.03837 C44.8752272,178.07405 45.657576,178.087541 46.4208025,178.078786 L46.4100192,181.69422 M59.1486169,191.931891 L59.2023808,173.906175 C59.4337876,173.632142 59.6377581,173.347803 59.8145694,173.054216 L59.8091625,174.867052 L59.8145972,173.054295 C59.9883601,172.765384 60.1357953,172.467506 60.2571799,172.161193 L60.2034159,190.187173 C60.0820898,190.493075 59.9344613,190.791071 59.7608073,191.079589 M60.6858161,170.038267 C60.6874856,169.978689 60.688317,169.92105 60.6885941,169.863137 L60.6348301,187.889116 C60.6345565,187.946045 60.6337423,188.00322 60.6321208,188.059874 C60.6210356,188.450991 60.5770181,188.831071 60.4995083,189.200996 C60.4288366,189.538727 60.3301769,189.867623 60.2035268,190.186991 L60.2572907,172.161275 C60.383857,171.841855 60.4824699,171.513446 60.5531292,171.176573" id="path-1"></path>
    </defs>
    <g id="Page-1" stroke="none" stroke-width="1" fill="none" fill-rule="evenodd">
        <g id="首页-20191225" transform="translate(-1049.000000, -188.000000)">
            <g id="section-01" transform="translate(0.000000, 80.000000)">
                <g id="插图" transform="translate(69.000000, 56.000000)">
                    <g id="section_02" transform="translate(980.000000, 51.773333)">
                        <g id="building" transform="translate(0.423077, 0.235556)">
                            <g id="楼3" transform="translate(0.538462, 51.768889)">
                                <polygon id="Fill-1" fill="#F6F6F9" points="0 129.967357 17.6296572 140.4 17.6538462 38.229994 0.0241889113 27.9644444"></polygon>
                                <polygon id="Fill-2" fill="#FAFAFF" points="17.6781241 38.1319353 17.6538462 140.4 45.8988821 123.876954 45.9230769 21.6088889"></polygon>
                                <polygon id="Fill-3" fill="#EFEFEF" points="28.1638908 11.44 0 27.9643499 17.6438015 38.2488889 45.8076923 21.7246227"></polygon>
                                <polygon id="Fill-3-Copy-3" fill="#F6F6F7" points="27.7048533 12.8266667 2.30769231 27.7128267 18.2182236 36.9777778 43.6153846 22.0916931"></polygon>
                                <path d="M27.174818,34.0677692 L26.0124813,34.8349403 L26.0124813,132.792529 L27.174818,132.025358 L27.174818,34.0677692 Z M24.8501447,35.6021114 L23.6878081,36.3692825 L23.6878081,134.326871 L24.8501447,133.5597 L24.8501447,35.6021114 Z M22.5254714,37.1364536 L21.3631348,37.9036247 L21.3631348,135.861213 L22.5254714,135.094042 L22.5254714,37.1364536 Z M20.2007982,38.6707958 L20.2007982,136.628384 L19.0384615,137.395556 L19.0384615,39.4379669 L20.2007982,38.6707958 Z M36.4905729,28.2864299 L36.4905729,126.244019 L35.3282362,127.01119 L35.3282362,29.053601 L36.4905729,28.2864299 Z M34.1658996,29.8207721 L34.1658996,127.778361 L33.003563,128.545532 L33.003563,30.5879432 L34.1658996,29.8207721 Z M31.8412263,31.3551143 L31.8412263,129.312703 L30.6788897,130.079874 L30.6788897,32.1222854 L31.8412263,31.3551143 Z M29.5165531,32.8894565 L29.5165531,130.847045 L28.3542164,131.614216 L28.3542164,33.6566276 L29.5165531,32.8894565 Z M43.3846154,24.1511111 L43.3846154,122.1087 L42.2222788,122.875871 L42.2222788,24.9182822 L43.3846154,24.1511111 Z M41.0599421,25.6854533 L41.0599421,123.643042 L39.8976055,124.410213 L39.8976055,26.4526244 L41.0599421,25.6854533 Z M38.7352688,27.2197955 L38.7352688,125.177384 L37.5729322,125.944555 L37.5729322,27.9869666 L38.7352688,27.2197955 Z" id="Combined-Shape" fill="#D8D8D8"></path>
                                <path d="M8.24489631,35.6738222 L9.40771332,36.3634851 L9.30275616,133.307017 L8.13862616,132.644853 L8.24489631,35.6738222 Z M10.5705303,37.053148 L11.7333473,37.7428109 L11.6310162,134.631345 L10.4668862,133.969181 L10.5705303,37.053148 Z M12.8961644,38.4324739 L14.0589814,39.1221368 L13.9592762,135.955672 L12.7951462,135.293509 L12.8961644,38.4324739 Z M15.2217984,39.8117997 L15.1234062,136.617836 L16.2875362,137.28 L16.3846154,40.5014626 L15.2217984,39.8117997 Z M1.25092537,31.8933333 L1.15384615,128.671871 L2.31797615,129.334035 L2.41374238,32.5829963 L1.25092537,31.8933333 Z M3.57655939,33.2726592 L3.48210616,129.996198 L4.64623616,130.658362 L4.7393764,33.9623221 L3.57655939,33.2726592 Z M5.90219341,34.651985 L5.81036616,131.320526 L6.97449616,131.98269 L7.06501043,35.3416479 L5.90219341,34.651985 Z" id="Combined-Shape-Copy-3" fill="#D8D8D8"></path>
                                <g id="box01-copy-2" transform="translate(3.807692, 0.000000)">
                                    <polygon id="Fill-1" fill="#E2E3E5" points="13.803105 -2.43431567e-05 0.0564164257 7.97649782 13.893069 15.95302 27.6397576 7.97649782"></polygon>
                                    <polygon id="Fill-1-Copy-3" fill="#F6F6F7" points="13.9100405 1.31933052 2.43448859 7.91598313 13.9851412 14.5126357 25.4606932 7.91598313"></polygon>
                                    <polygon id="Fill-2" fill="#E4E4E4" points="13.893069 15.9531174 13.8367501 35.796685 27.5834387 27.8201628 27.6397576 7.97659519"></polygon>
                                    <polygon id="Fill-3" fill="#FAFAFF" points="0 27.8612812 13.8366526 35.8375599 13.8929715 15.9942357 0.0563189038 8.01747009"></polygon>
                                    <g id="Group-3" transform="translate(0.000000, 8.017470)">
                                        <polygon id="Fill-3-Copy" fill="#F6F6F9" points="0 19.8285743 13.7395118 27.7127584 13.7954353 7.91650464 0.0559235147 0.0318348534"></polygon>
                                        <path d="M1.52155537,2.33420015 L3.04311074,3.22433483 L3.04311074,20.0711707 L1.52155537,19.181036 L1.52155537,2.33420015 Z M4.5646661,4.11446951 L6.08622147,5.00460419 L6.08622147,21.8514401 L4.5646661,20.9613054 L4.5646661,4.11446951 Z M7.60777684,5.89473887 L9.12933221,6.78487355 L9.12933221,23.6317094 L7.60777684,22.7415748 L7.60777684,5.89473887 Z M10.6508876,7.67500823 L12.1724429,8.5651429 L12.1724429,25.4119788 L10.6508876,24.5218441 L10.6508876,7.67500823 Z" id="Combined-Shape" fill="#D8D8D8"></path>
                                    </g>
                                    <g id="Group-3-Copy" transform="translate(20.692308, 22.017470) scale(-1, 1) translate(-20.692308, -22.017470) translate(13.692308, 8.017470)">
                                        <polygon id="Fill-3-Copy" fill="#FAFAFF" points="0 19.8285743 13.8968724 27.820089 13.7954353 7.91650464 0.0559235147 0.0318348534"></polygon>
                                        <path d="M1.52155537,2.33420015 L3.04311074,3.22433483 L3.04311074,20.0711707 L1.52155537,19.181036 L1.52155537,2.33420015 Z M4.5646661,4.11446951 L6.08622147,5.00460419 L6.08622147,21.8514401 L4.5646661,20.9613054 L4.5646661,4.11446951 Z M7.60777684,5.89473887 L9.12933221,6.78487355 L9.12933221,23.6317094 L7.60777684,22.7415748 L7.60777684,5.89473887 Z M10.6508876,7.67500823 L12.1724429,8.5651429 L12.1724429,25.4119788 L10.6508876,24.5218441 L10.6508876,7.67500823 Z" id="Combined-Shape" fill="#D8D8D8"></path>
                                    </g>
                                </g>
                            </g>
                            <g id="楼2" transform="translate(33.000000, 0.000000)">
                                <path d="M46.2428731,32.0833281 C60.6829311,40.4254265 65.5266761,51.1808907 57.0585749,56.1049555 C55.5974358,56.9545889 53.8356009,57.5751461 51.8461647,57.9775465 C61.7974806,65.5713658 64.3136449,74.0704682 57.0585749,78.2891749 C55.597682,79.1386652 53.8361945,79.7591565 51.8471701,80.1615625 C61.7976494,87.7561553 64.3134016,96.2548292 57.0585749,100.473394 C55.597682,101.322885 53.8361945,101.943376 51.8471701,102.345782 C61.7976494,109.940375 64.3134016,118.439049 57.0585749,122.657614 C55.597682,123.507104 53.8361945,124.127595 51.8471701,124.530001 C61.7976494,132.124594 64.3134016,140.623268 57.0585749,144.841833 C55.5974358,145.691467 53.8356009,146.312024 51.8461647,146.714424 C61.7974806,154.308244 64.3136449,162.807346 57.0585749,167.026053 C55.5974358,167.875686 53.8356009,168.496243 51.8461647,168.898644 C61.7974806,176.492463 64.3136449,184.991565 57.0585749,189.210272 C48.5890881,194.135169 30.0164105,191.363251 15.5763526,183.021152 C1.13435469,174.677945 -3.70745037,163.92359 4.76231359,158.998416 C6.22262582,158.149212 7.98344783,157.528889 9.97177161,157.126552 C0.0201866266,149.531707 -2.49393764,141.033712 4.76231359,136.814196 C6.22287192,135.964849 7.98404131,135.34446 9.97277685,134.942129 C0.0203552916,127.348058 -2.49418102,118.849634 4.76231359,114.629977 C6.22287192,113.78063 7.98404131,113.160241 9.97277685,112.75791 C0.0203552916,105.163839 -2.49418102,96.6654142 4.76231359,92.4457572 C6.22287192,91.5964104 7.98404131,90.9760214 9.97277685,90.5736906 C0.0203552916,82.9796192 -2.49418102,74.4811948 4.76231359,70.2615378 C6.22287192,69.412191 7.98404131,68.791802 9.97277685,68.3894711 C0.0203552916,60.7953997 -2.49418102,52.2969754 4.76231359,48.0773184 C6.22262582,47.2281147 7.98344783,46.6077916 9.97177161,46.2054551 C0.0201866266,38.6106102 -2.49393764,30.1126144 4.76231359,25.893099 C13.2298605,20.9690341 31.8011524,23.7403978 46.2428731,32.0833281 Z" id="Combined-Shape" fill="#EFEFEF"></path>
                                <path d="M46.2428731,9.89910865 C60.6829311,18.2412071 65.5266761,28.9966712 57.0585749,33.9207361 C48.5890881,38.8456328 30.0164105,36.0737145 15.5763526,27.7316161 C1.13435469,19.3884085 -3.70745037,8.63405354 4.76231359,3.70887952 C13.2298605,-1.21518528 31.8011524,1.55617833 46.2428731,9.89910865" id="Fill-56" fill="#E2E3E5"></path>
                                <path d="M44.7436472,10.7616308 C57.7410484,18.2618514 62.1008714,27.9318828 54.4787892,32.359015 C46.8554599,36.7868951 30.138315,34.2947167 17.1409138,26.7944961 C4.14176655,19.2932782 -0.21631033,9.62424399 7.40726849,5.19611454 C15.0288517,0.768982365 31.7447494,3.26066221 44.7436472,10.7616308" id="Fill-56-Copy" fill="#F6F6F7"></path>
                                <g id="Combined-Shape" transform="translate(0.538462, 10.144799)">
                                    <path d="M60.2571799,174.948581 L60.2034159,193.936609 C60.0820313,194.261608 59.934319,194.578842 59.7605561,194.886648 C59.5839941,195.199917 59.3800236,195.503564 59.1486169,195.797227 C58.8886653,196.127134 58.5937949,196.443814 58.2637286,196.746629 L58.2637563,196.746851 C57.7851462,197.186098 57.231987,197.595952 56.6031704,197.972806 C56.5580807,197.999677 56.5123536,198.026575 56.4666266,198.053473 C55.5919922,198.561769 54.6098299,198.988261 53.5356592,199.334889 C52.6731079,199.613468 51.7510837,199.840579 50.7777897,200.017498 C50.0628953,200.147276 49.3198995,200.250155 48.5525159,200.326413 C48.0803353,200.373425 47.5987383,200.410152 47.1085194,200.436979 L46.3670386,200.47 C45.603812,200.49579 44.8214632,200.498285 44.0227635,200.478042 C43.1637872,200.456357 42.2861044,200.408384 41.392625,200.334067 C40.3976314,200.251569 39.3833216,200.137043 38.3543237,199.990627 L38.4080877,181.002877 C39.1798361,181.11248 39.9434783,181.204458 40.696793,181.278342 L41.4466661,181.346039 C42.1165678,181.401777 42.7777398,181.442696 43.4287791,181.468914 L44.0765275,181.490292 C44.8752272,181.510535 45.657576,181.507762 46.4208025,181.481972 C47.168565,181.456572 47.8977041,181.408875 48.6063353,181.338441 C49.3736634,181.262127 50.1163821,181.159525 50.8316645,181.02947 C51.8048476,180.852551 52.7268719,180.62544 53.5895895,180.347028 C54.663871,180.000233 55.6457562,179.574019 56.5201134,179.065445 L56.6570175,178.98475 L56.6570175,178.98475 C57.285751,178.607924 57.838633,178.19807 58.3175202,177.758823 C58.6475589,177.456064 58.9424293,177.139106 59.2023808,176.809394 C59.4337876,176.515813 59.6377581,176.211889 59.8145694,175.898814 C59.9883601,175.590814 60.1357953,175.273857 60.2571799,174.948581 Z M0.0538193888,155.402176 C0.0388541623,160.668433 5.40111654,167.309002 15.037891,172.876131 C17.5200248,174.310218 20.1243437,175.579539 22.7784418,176.673577 L23.7758928,177.075493 C25.5149076,177.760662 27.2712432,178.370343 29.0248524,178.901968 L30.0765581,179.211529 C31.3221083,179.567142 32.5641113,179.883 33.7954723,180.157827 L34.7168591,180.356123 C35.9625757,180.614847 37.195544,180.830588 38.4080045,181.002793 L38.3542406,199.990821 C37.1417801,199.818616 35.9088117,199.602597 34.6630952,199.344151 C33.1308499,199.026196 31.5794548,198.644073 30.0227941,198.199557 C27.9207063,197.599224 25.8089466,196.885447 23.7221289,196.063521 C20.7232915,194.882322 17.7765275,193.477229 14.9838499,191.864159 C5.34735258,186.29703 -0.0149097998,179.656183 2.41867838e-05,174.390204 L0.0538193888,155.402176 Z M60.6885941,172.51866 L60.6348301,191.506688 L60.6320588,191.688876 L60.6320588,191.688876 C60.6210289,192.099063 60.5769646,192.500597 60.4993671,192.892148 C60.4288366,193.248704 60.3301769,193.597274 60.2035268,193.936415 L60.2572907,174.948664 C60.3839409,174.609246 60.4826005,174.260954 60.5532697,173.904342 C60.6310057,173.512569 60.6747928,173.111035 60.6858782,172.700904 C60.6874856,172.640396 60.688317,172.579667 60.6885941,172.51866 Z M58.3175202,155.574603 L58.2637563,174.562631 C57.7851462,175.001879 57.231987,175.411732 56.6031704,175.788587 C56.5580807,175.815457 56.5123536,175.842356 56.4666266,175.869254 C55.5919922,176.37755 54.6098299,176.804042 53.5356592,177.15067 C52.6731079,177.429248 51.7510837,177.656359 50.7777897,177.833278 C50.0628953,177.963056 49.3198995,178.065935 48.5525159,178.142194 C47.8445355,178.212652 47.1154564,178.26006 46.3678249,178.28558 L46.3670386,178.285781 C45.603812,178.31157 44.8214632,178.314066 44.0227635,178.293823 C43.1637872,178.272138 42.2861044,178.224164 41.392625,178.149847 C40.3976314,178.06735 39.3833216,177.952824 38.3543237,177.806408 L38.4080877,158.818657 C39.1798361,158.928261 39.9434783,159.020239 40.696793,159.094123 L41.4466661,159.161819 C42.1165678,159.217557 42.7777398,159.258477 43.4287791,159.284695 L44.0765275,159.306072 C44.8752272,159.326315 45.657576,159.323542 46.4208025,159.297753 C47.168565,159.272352 47.8977041,159.224656 48.6063353,159.154221 C49.3736634,159.077907 50.1163821,158.975305 50.8316645,158.84525 C51.8048476,158.668331 52.7268719,158.44122 53.5895895,158.162808 C54.663871,157.816014 55.6457562,157.389799 56.5201134,156.881226 C56.5661176,156.854605 56.6118447,156.827707 56.6570175,156.800531 C57.285751,156.423704 57.838633,156.013851 58.3175202,155.574603 Z M0.0538193888,133.217957 C0.0388541623,138.484213 5.40111654,145.124782 15.037891,150.691912 C17.5200248,152.125999 20.1243437,153.395319 22.7784418,154.489357 L23.7758928,154.891274 C25.5149076,155.576443 27.2712432,156.186124 29.0248524,156.717749 L30.0765581,157.027309 C31.3221083,157.382922 32.5641113,157.698781 33.7954723,157.973608 L34.7168591,158.171904 C35.9625757,158.430627 37.195544,158.646369 38.4080045,158.818574 L38.3542406,177.806602 C37.1417801,177.634397 35.9088117,177.418378 34.6630952,177.159932 C33.1308499,176.841977 31.5794548,176.459853 30.0227941,176.015337 C27.9207063,175.415004 25.8089466,174.701227 23.7221289,173.879302 C20.7232915,172.698103 17.7765275,171.29301 14.9838499,169.67994 C5.34735258,164.11281 -0.0149097998,157.471964 2.41867838e-05,152.205985 L0.0538193888,133.217957 Z M59.8145694,153.714595 L59.7608055,172.702623 C59.5839941,173.015698 59.3800236,173.319344 59.1486169,173.613008 C58.8886653,173.942915 58.5937949,174.259595 58.2637286,174.562409 L58.3174925,155.574659 C58.6475589,155.271844 58.9424293,154.954887 59.2023808,154.625174 C59.4337876,154.331594 59.6377581,154.02767 59.8145694,153.714595 Z M60.6858782,150.516684 L60.6321142,169.504712 C60.6210289,169.914843 60.5769646,170.316378 60.4993671,170.707929 C60.4288366,171.064485 60.3301769,171.413054 60.2035268,171.752196 C60.0820313,172.077389 59.934319,172.394623 59.7605561,172.702429 L59.8145972,153.714678 C59.9883601,153.406595 60.1357953,153.089638 60.2571799,152.764362 C60.3839409,152.425026 60.4826005,152.076734 60.5532697,151.720123 C60.6310057,151.32835 60.6747928,150.926815 60.6858782,150.516684 Z M53.5895895,135.978589 L53.5358255,154.966617 C52.6731079,155.245029 51.7510837,155.47214 50.7777897,155.649059 C50.0628953,155.778837 49.3198995,155.881716 48.5525159,155.957974 C48.0803353,156.004986 47.5987383,156.041714 47.1085194,156.06854 L46.3670386,156.101562 C45.603812,156.127351 44.8214632,156.129846 44.0227635,156.109603 L44.022625,156.109825 C43.1637872,156.087918 42.2861044,156.039945 41.392625,155.965628 L41.4466661,136.9776 C42.3398684,137.051917 43.2175512,137.09989 44.0763889,137.121797 C44.8752272,137.142096 45.657576,137.139323 46.4208025,137.113534 L46.420858,137.113645 C47.168565,137.088133 47.8977041,137.040437 48.6063353,136.970002 C49.3736634,136.893688 50.1163821,136.791086 50.8316645,136.661031 C51.8048476,136.484112 52.7268719,136.257001 53.5895895,135.978589 Z M38.4080877,136.634438 C39.4370856,136.780576 40.4516725,136.89538 41.4465829,136.977738 L41.392819,155.965766 C40.3976314,155.88313 39.3833216,155.768604 38.3543237,155.622188 L38.4080877,136.634438 Z M0.0538193888,111.033738 C0.0388541623,116.299994 5.40111654,122.940563 15.037891,128.507693 C17.5200248,129.941779 20.1243437,131.2111 22.7784418,132.305138 L23.7758928,132.707054 C25.5149076,133.392223 27.2712432,134.001904 29.0248524,134.533529 L30.0765581,134.84309 C31.3221083,135.198703 32.5641113,135.514562 33.7954723,135.789389 L34.7168591,135.987684 C35.9625757,136.246408 37.195544,136.462149 38.4080045,136.634354 L38.3542406,155.622382 C37.1417801,155.450177 35.9088117,155.234159 34.6630952,154.975712 C33.1308499,154.657757 31.5794548,154.275634 30.0227941,153.831118 C27.9207063,153.230785 25.8089466,152.517008 23.7221289,151.695082 C20.7232915,150.513884 17.7765275,149.108791 14.9838499,147.495721 C5.34735258,141.928591 -0.0149097998,135.287745 2.41867838e-05,130.021766 L0.0538193888,111.033738 Z M60.6885941,128.150222 L60.6348301,147.13825 L60.6320588,147.320438 L60.6320588,147.320438 C60.6210289,147.730624 60.5769646,148.132158 60.4993671,148.52371 C60.4288366,148.880265 60.3301769,149.228835 60.2035268,149.567976 C60.0820313,149.893169 59.934319,150.210403 59.7605561,150.51821 C59.5839941,150.831478 59.3800236,151.135125 59.1486169,151.428789 C58.8886653,151.758696 58.5937949,152.075375 58.2637286,152.37819 C57.7851462,152.817659 57.231987,153.227513 56.6031704,153.604367 C56.5580807,153.631238 56.5123536,153.658136 56.4666266,153.685035 C55.5919922,154.193331 54.6098299,154.619822 53.5356592,154.966451 L53.5897003,135.9787 C54.663871,135.631794 55.6457562,135.20558 56.5201134,134.697007 C56.5661176,134.670386 56.6118447,134.643487 56.6570175,134.616311 C57.285751,134.239485 57.838633,133.829631 58.3175202,133.390384 C58.6475589,133.087625 58.9424293,132.770668 59.2023808,132.440955 C59.4337876,132.147374 59.6377581,131.84345 59.8145694,131.530376 C59.9883601,131.222375 60.1357953,130.905418 60.2571799,130.580142 C60.3839409,130.240807 60.4826005,129.892515 60.5532697,129.535903 C60.6310057,129.14413 60.6747928,128.742596 60.6858782,128.332465 C60.6874856,128.271957 60.688317,128.211228 60.6885941,128.150222 Z M60.6885941,105.966002 L60.6348301,124.95403 L60.6320588,125.136218 L60.6320588,125.136218 C60.6210289,125.546404 60.5769646,125.947939 60.4993671,126.33949 L60.4995057,126.339712 C60.4288366,126.696046 60.3301769,127.044616 60.2035268,127.383757 C60.0820313,127.70895 59.934319,128.026184 59.7605561,128.33399 C59.5839941,128.647259 59.3800236,128.950906 59.1486169,129.244569 L59.1486169,129.244763 C58.8886653,129.574476 58.5937949,129.891156 58.2637286,130.193971 C57.7851462,130.63344 57.231987,131.043293 56.6031704,131.420148 C56.5580807,131.447018 56.5123536,131.473917 56.4666266,131.500815 C55.5919922,132.009111 54.6098299,132.435603 53.5356592,132.782231 C52.6731079,133.060809 51.7510837,133.28792 50.7777897,133.46484 C50.0628953,133.594617 49.3198995,133.697497 48.5525159,133.773755 C48.0803353,133.820767 47.5987383,133.857494 47.1085194,133.884321 L46.3670386,133.917342 C45.603812,133.943131 44.8214632,133.945627 44.0227635,133.925384 C43.1637872,133.903699 42.2861044,133.855726 41.392625,133.781408 C40.3976314,133.698911 39.3833216,133.584385 38.3543237,133.437969 L38.4080877,114.450218 C39.1798361,114.559822 39.9434783,114.6518 40.696793,114.725684 L41.4466661,114.79338 C42.1165678,114.849118 42.7777398,114.890038 43.4287791,114.916256 L44.0765275,114.937633 C44.8752272,114.957876 45.657576,114.955103 46.4208025,114.929314 C47.168565,114.903913 47.8977041,114.856217 48.6063353,114.785782 C49.3736634,114.709469 50.1163821,114.606867 50.8316645,114.476812 C51.8048476,114.299892 52.7268719,114.072781 53.5895895,113.79437 C54.663871,113.447575 55.6457562,113.02136 56.5201134,112.512787 C56.5661176,112.486166 56.6118447,112.459268 56.6570175,112.432092 C57.285751,112.055265 57.838633,111.645412 58.3175202,111.206164 C58.6475589,110.903405 58.9424293,110.586448 59.2023808,110.256735 C59.4337876,109.963155 59.6377581,109.659231 59.8145694,109.346156 C59.9883601,109.038156 60.1357953,108.721199 60.2571799,108.395923 C60.3839409,108.056588 60.4826005,107.708295 60.5532697,107.351684 C60.6310057,106.959911 60.6747928,106.558376 60.6858782,106.148246 C60.6874856,106.087738 60.688317,106.027009 60.6885941,105.966002 Z M0.0538193888,88.8495181 C0.0388541623,94.1157745 5.40111654,100.756343 15.037891,106.323473 C17.5200248,107.75756 20.1243437,109.02688 22.7784418,110.120919 L23.7758928,110.522835 C25.5149076,111.208004 27.2712432,111.817685 29.0248524,112.34931 L30.0765581,112.65887 C31.3221083,113.014483 32.5641113,113.330342 33.7954723,113.605169 L34.7168591,113.803465 C35.9625757,114.062188 37.195544,114.27793 38.4080045,114.450135 L38.3542406,133.438163 C37.1417801,133.265958 35.9088117,133.049939 34.6630952,132.791493 C33.1308499,132.473538 31.5794548,132.091415 30.0227941,131.646898 C27.9207063,131.046566 25.8089466,130.332788 23.7221289,129.510863 C20.7232915,128.329664 17.7765275,126.924571 14.9838499,125.311501 C5.34735258,119.744371 -0.0149097998,113.103525 2.41867838e-05,107.837546 L0.0538193888,88.8495181 Z M60.6885941,83.7817827 L60.6348301,102.769811 L60.6320588,102.951999 L60.6320588,102.951999 C60.6210289,103.362185 60.5769646,103.763719 60.4993671,104.155271 C60.4288366,104.511827 60.3301769,104.860396 60.2035268,105.199537 L60.2034159,105.199731 C60.0820313,105.52473 59.934319,105.841965 59.7605561,106.149771 C59.5839941,106.46304 59.3800236,106.766686 59.1486169,107.06035 C58.8886653,107.390257 58.5937949,107.706937 58.2637286,108.009751 C57.7851462,108.44922 57.231987,108.859074 56.6031704,109.235928 C56.5580807,109.262799 56.5123536,109.289697 56.4666266,109.316596 C55.5919922,109.824892 54.6098299,110.251383 53.5356592,110.598012 C52.6731079,110.87659 51.7510837,111.103701 50.7777897,111.28062 C50.0628953,111.410398 49.3198995,111.513277 48.5525159,111.589535 C48.0803353,111.636547 47.5987383,111.673275 47.1085194,111.700101 L46.3670386,111.733123 C45.603812,111.758912 44.8214632,111.761408 44.0227635,111.741165 C43.1637872,111.719479 42.2861044,111.671506 41.392625,111.597189 C40.3976314,111.514691 39.3833216,111.400165 38.3543237,111.25375 L38.4080877,92.2659988 C39.1798361,92.3756027 39.9434783,92.4675806 40.696793,92.5414644 L41.4466661,92.6091609 C42.1165678,92.6648988 42.7777398,92.7058183 43.4287791,92.7320364 L44.0765275,92.7534138 C44.8752272,92.7736569 45.657576,92.7708839 46.4208025,92.7450947 C47.168565,92.7196938 47.8977041,92.6719977 48.6063353,92.6015628 C49.3736634,92.5252491 50.1163821,92.4226471 50.8316645,92.2925921 C51.8048476,92.115673 52.7268719,91.888562 53.5895895,91.6101501 C54.663871,91.2633553 55.6457562,90.837141 56.5201134,90.3285677 L56.6570175,90.2478726 L56.6570175,90.2478726 C57.285751,89.8710459 57.838633,89.4611925 58.3175202,89.0219449 C58.6475589,88.7191858 58.9424293,88.4022288 59.2023808,88.0725158 C59.4337876,87.7789354 59.6377581,87.4750116 59.8145694,87.1619368 C59.9883601,86.8539366 60.1357953,86.5369796 60.2571799,86.2117035 C60.3839409,85.8723681 60.4826005,85.5240759 60.5532697,85.1674645 C60.6310057,84.7756912 60.6747928,84.3741568 60.6858782,83.9640261 C60.6874856,83.9035186 60.688317,83.8427893 60.6885941,83.7817827 Z M0.0538193888,66.6652987 C0.0388541623,71.931555 5.40111654,78.5721238 15.037891,84.1392537 C17.8302915,85.7526011 20.7773326,87.1574167 23.7759205,88.3387264 L23.7758928,88.3386155 C25.5149076,89.0237844 27.2712432,89.6334653 29.0248524,90.1650906 L30.0765581,90.4746508 C31.3221083,90.8302638 32.5641113,91.1461228 33.7954723,91.4209497 L34.7168591,91.6192456 C35.9625757,91.8779691 37.195544,92.0937106 38.4080045,92.2659156 L38.3542406,111.253944 C37.1417801,111.081739 35.9088117,110.86572 34.6630952,110.607274 C33.1308499,110.289318 31.5794548,109.907195 30.0227941,109.462679 C27.9207063,108.862346 25.8089466,108.148569 23.7221289,107.326644 C20.7232915,106.145445 17.7765275,104.740352 14.9838499,103.127282 C5.34735258,97.5601518 -0.0149097998,90.9193058 2.41867838e-05,85.6533267 L0.0538193888,66.6652987 Z M60.6885941,61.5975633 L60.6348301,80.5855913 C60.634553,80.6463206 60.6337216,80.7073272 60.6320588,80.7677792 C60.6210289,81.1779654 60.5769646,81.5794998 60.4993671,81.9710513 C60.4288366,82.3276071 60.3301769,82.6761767 60.2035268,83.0153179 C60.0820313,83.3405109 59.934319,83.6577452 59.7605561,83.9655513 L59.7608055,83.9657454 C59.5839941,84.2788202 59.3800236,84.5824667 59.1486169,84.8761303 C58.8886653,85.2060373 58.5937949,85.5227171 58.2637286,85.8255317 L58.2637563,85.8257535 C57.7851462,86.2650011 57.231987,86.6748545 56.6031704,87.0517089 C56.5580807,87.0785796 56.5123536,87.1054779 56.4666266,87.1323763 C55.5919922,87.6406722 54.6098299,88.0671639 53.5356592,88.4137923 C52.6731079,88.6923706 51.7510837,88.9194816 50.7777897,89.0964007 C50.0628953,89.2261784 49.3198995,89.3290577 48.5525159,89.405316 C48.0803353,89.452328 47.5987383,89.4890552 47.1085194,89.5158817 L46.3670386,89.5489033 C45.603812,89.5746925 44.8214632,89.5771882 44.0227635,89.5569451 C43.1637872,89.53526 42.2861044,89.4872867 41.392625,89.4129695 C40.3976314,89.330472 39.3833216,89.2159459 38.3543237,89.0695301 L38.4080877,70.0817794 C39.1798361,70.1913833 39.9434783,70.2833611 40.696793,70.357245 L41.4466661,70.4249415 C42.1165678,70.4806794 42.7777398,70.5215989 43.4287791,70.547817 L44.0765275,70.5691944 C44.8752272,70.5894375 45.657576,70.5866645 46.4208025,70.5608753 C47.168565,70.5354744 47.8977041,70.4877783 48.6063353,70.4173434 C49.3736634,70.3410297 50.1163821,70.2384277 50.8316645,70.1083727 C51.8048476,69.9314536 52.7268719,69.7043426 53.5895895,69.4259307 C54.663871,69.0791358 55.6457562,68.6529215 56.5201134,68.1443483 L56.6570175,68.0636532 L56.6570175,68.0636532 C57.285751,67.6868265 57.838633,67.276973 58.3175202,66.8377255 C58.6475589,66.5349664 58.9424293,66.2180093 59.2023808,65.8882964 C59.4337876,65.594716 59.6377581,65.2907922 59.8145694,64.9777174 C59.9883601,64.6697172 60.1357953,64.3527602 60.2571799,64.027484 C60.3839409,63.6881487 60.4826005,63.3398564 60.5532697,62.9832451 C60.6310057,62.5914718 60.6747928,62.1899374 60.6858782,61.7798067 C60.6874856,61.7192992 60.688317,61.6585699 60.6885941,61.5975633 Z M0.0538193888,44.4810792 C0.0388541623,49.7473356 5.40111654,56.3879044 15.037891,61.9550343 C17.5200248,63.3891208 20.1243437,64.6584416 22.7784418,65.7524797 L23.7758928,66.1543961 C25.5149076,66.8395649 27.2712432,67.4492458 29.0248524,67.9808711 L30.0765581,68.2904314 C31.3221083,68.6460444 32.5641113,68.9619033 33.7954723,69.2367303 L34.7168591,69.4350262 C35.9625757,69.6937496 37.195544,69.9094912 38.4080045,70.0816962 L38.3542406,89.0697242 C37.1417801,88.8975192 35.9088117,88.6815004 34.6630952,88.4230542 C33.1308499,88.1050989 31.5794548,87.7229757 30.0227941,87.2784594 C27.9207063,86.6781267 25.8089466,85.9643494 23.7221289,85.1424241 C20.7232915,83.9612253 17.7765275,82.5561323 14.9838499,80.9430623 C5.34735258,75.3759324 -0.0149097998,68.7350863 2.41867838e-05,63.4691072 L0.0538193888,44.4810792 Z M60.6885941,39.4133439 L60.6348301,58.4013719 L60.6320588,58.5835598 L60.6320588,58.5835598 C60.6210289,58.993746 60.5769646,59.3952804 60.4993671,59.7868319 C60.4288366,60.1433877 60.3301769,60.4919573 60.2035268,60.8310985 C60.0820313,61.1562914 59.934319,61.4735258 59.7605561,61.7813318 C59.5839941,62.0946007 59.3800236,62.3982472 59.1486169,62.6919108 C58.8886653,63.0218179 58.5937949,63.3384977 58.2637286,63.6413122 C57.7851462,64.0807816 57.231987,64.4906351 56.6031704,64.8674895 C56.5580807,64.8943602 56.5123536,64.9212585 56.4666266,64.9481569 C55.5919922,65.4564528 54.6098299,65.8829444 53.5356592,66.2295729 L53.5358255,66.2297392 C52.6731079,66.5081512 51.7510837,66.7352621 50.7777897,66.9121813 C50.0628953,67.041959 49.3198995,67.1448383 48.5525159,67.2210965 C47.8445355,67.2915553 47.1154564,67.3389631 46.3678249,67.3644831 L46.3670386,67.3646839 C45.603812,67.3904731 44.8214632,67.3929688 44.0227635,67.3727257 C43.1637872,67.3510406 42.2861044,67.3030672 41.392625,67.2287501 C40.3976314,67.1462525 39.3833216,67.0317265 38.3543237,66.8853107 L38.4080877,47.8975599 C39.1798361,48.0071639 39.9434783,48.0991417 40.696793,48.1730256 L41.4466661,48.2407221 C42.1165678,48.2964599 42.7777398,48.3373794 43.4287791,48.3635975 L44.0765275,48.384975 C44.8752272,48.4052181 45.657576,48.402445 46.4208025,48.3766559 C47.168565,48.351255 47.8977041,48.3035589 48.6063353,48.233124 C49.3736634,48.1568103 50.1163821,48.0542083 50.8316645,47.9241533 C51.8048476,47.7472341 52.7268719,47.5201232 53.5895895,47.2417112 C54.663871,46.8949164 55.6457562,46.4687021 56.5201134,45.9601289 C56.5661176,45.9335078 56.6118447,45.9066094 56.6570175,45.8794338 C57.285751,45.5026071 57.838633,45.0927536 58.3175202,44.6535061 C58.6475589,44.3507469 58.9424293,44.0337899 59.2023808,43.7040769 C59.4337876,43.4104965 59.6377581,43.1065727 59.8145694,42.7934979 C59.9883601,42.4854978 60.1357953,42.1685407 60.2571799,41.8432646 C60.3839409,41.5039293 60.4826005,41.155637 60.5532697,40.7990257 C60.6310057,40.4072524 60.6747928,40.005718 60.6858782,39.5955872 C60.6874856,39.5350798 60.688317,39.4743505 60.6885941,39.4133439 Z M0.0538193888,22.2968598 C0.0388541623,27.5631162 5.40111654,34.203685 15.037891,39.7708148 C17.5200248,41.2049014 20.1243437,42.4742222 22.7784418,43.5682602 L23.7758928,43.9701767 C25.5149076,44.6553455 27.2712432,45.2650264 29.0248524,45.7966517 L30.0765581,46.106212 C31.3221083,46.461825 32.5641113,46.7776839 33.7954723,47.0525109 L34.7168591,47.2508068 C35.9625757,47.5095302 37.195544,47.7252717 38.4080045,47.8974768 L38.3542406,66.8855048 C37.1417801,66.7132998 35.9088117,66.4972809 34.6630952,66.2388348 C33.1308499,65.9208794 31.5794548,65.5387563 30.0227941,65.09424 C27.9207063,64.4939073 25.8089466,63.78013 23.7221289,62.9582047 C20.7232915,61.7770059 17.7765275,60.3719129 14.9838499,58.7588429 C5.34735258,53.191713 -0.0149097998,46.5508669 2.41867838e-05,41.2848878 L0.0538193888,22.2968598 Z M60.6885941,17.2291244 L60.6348301,36.2171525 L60.6320588,36.3993404 L60.6320588,36.3993404 C60.6210289,36.8095266 60.5769646,37.211061 60.4993671,37.6026124 L60.4995057,37.6028343 C60.4288366,37.9591683 60.3301769,38.3077378 60.2035268,38.6468791 C60.0820313,38.972072 59.934319,39.2893064 59.7605561,39.5971124 C59.5839941,39.9103813 59.3800236,40.2140278 59.1486169,40.5076914 C58.8886653,40.8375985 58.5937949,41.1542782 58.2637286,41.4570928 C57.7851462,41.8965622 57.231987,42.3064157 56.6031704,42.6832701 C56.5580807,42.7101407 56.5123536,42.7370391 56.4666266,42.7639375 C55.5919922,43.2722334 54.6098299,43.698725 53.5356592,44.0453534 C52.6731079,44.3239318 51.7510837,44.5510427 50.7777897,44.7279619 C50.0628953,44.8577395 49.3198995,44.9606189 48.5525159,45.0368771 C48.0803353,45.0838892 47.5987383,45.1206164 47.1085194,45.1474429 L46.3670386,45.1804645 C45.603812,45.2062536 44.8214632,45.2087494 44.0227635,45.1885063 L44.022625,45.1887281 C43.1637872,45.1668212 42.2861044,45.1188478 41.392625,45.0445307 L41.4466661,26.0565027 C42.3398684,26.1308198 43.2175512,26.1787932 44.0763889,26.2007001 C44.8752272,26.2209986 45.657576,26.2182256 46.4208025,26.1924365 C47.168565,26.1670355 47.8977041,26.1193395 48.6063353,26.0489046 C49.3736634,25.9725908 50.1163821,25.8699888 50.8316645,25.7399338 C51.8048476,25.5630147 52.7268719,25.3359038 53.5895895,25.0574918 C54.663871,24.710697 55.6457562,24.2844827 56.5201134,23.7759094 C56.5661176,23.7492884 56.6118447,23.72239 56.6570175,23.6952143 C57.285751,23.3183876 57.838633,22.9085342 58.3175202,22.4692866 C58.6475589,22.1665275 58.9424293,21.8495705 59.2023808,21.5198575 C59.4337876,21.2262771 59.6377581,20.9223533 59.8145694,20.6092785 C59.9883601,20.3012783 60.1357953,19.9843213 60.2571799,19.6590452 C60.3839409,19.3197098 60.4826005,18.9714176 60.5532697,18.6148063 C60.6310057,18.2230329 60.6747928,17.8214986 60.6858782,17.4113678 C60.6874856,17.3508604 60.688317,17.290131 60.6885941,17.2291244 Z M38.4080877,25.7133405 C39.4370856,25.8594791 40.4516725,25.9742824 41.4465829,26.0566413 L41.392819,45.0446693 C40.3976314,44.9620331 39.3833216,44.8475071 38.3543237,44.7010912 L38.4080877,25.7133405 Z M34.7168591,25.0665873 C35.9625757,25.3253108 37.195544,25.5410523 38.4080045,25.7132573 L38.3542406,44.7012853 C37.1417801,44.5290803 35.9088117,44.3130615 34.6630952,44.0546153 L34.7168591,25.0665873 Z M14.9838499,36.5746234 C5.34735258,31.0074936 -0.0149097998,24.3666475 2.41867838e-05,19.1006684 L0.0538193888,0.112640374 C0.0388541623,5.37889676 5.40111654,12.0194655 15.037891,17.5865954 C17.5200248,19.020682 20.1243437,20.2900027 22.7784418,21.3840408 L23.7758928,21.7859572 C25.5149076,22.4711261 27.2712432,23.080807 29.0248524,23.6124323 L30.0765581,23.9219925 C31.6334959,24.3665088 33.184891,24.7489093 34.7168868,25.0666982 L34.6631229,44.0547263 C33.1308499,43.73666 31.5794548,43.3545368 30.0227941,42.9100205 C27.9207063,42.3096878 25.8089466,41.5959106 23.7221289,40.7739852 C20.7232915,39.5927865 17.7765275,38.1876935 14.9838499,36.5746234 Z" id="Mask" fill="#F6F6F7"></path>
                                    <mask id="mask-2" fill="white">
                                        <use xlink:href="#path-1"></use>
                                    </mask>
                                    <use id="Mask" fill="#FAFAFF" xlink:href="#path-1"></use>
                                    <path d="M-3.04847208,1.14387381 L-1.1521917,1.73622248 L-1.1521917,191.957748 L-3.04847208,191.365399 L-3.04847208,1.14387381 Z M1.91103046,2.69309339 L3.80731084,3.28544205 L3.80731084,193.506968 L1.91103046,192.914619 L1.91103046,2.69309339 Z M6.87053299,4.24231296 L8.76681337,4.83466162 L8.76681337,195.056187 L6.87053299,194.463839 L6.87053299,4.24231296 Z M11.8300355,5.79153254 L13.7263159,6.3838812 L13.7263159,196.605407 L11.8300355,196.013058 L11.8300355,5.79153254 Z M16.7895381,7.34075211 L18.6858184,7.93310077 L18.6858184,198.154626 L16.7895381,197.562278 L16.7895381,7.34075211 Z M21.7490406,8.88997169 L23.645321,9.48232035 L23.645321,199.703846 L21.7490406,199.111497 L21.7490406,8.88997169 Z M26.7085431,10.4391913 L28.6048235,11.0315399 L28.6048235,201.253066 L26.7085431,200.660717 L26.7085431,10.4391913 Z M31.6680457,11.9884108 L33.564326,12.5807595 L33.564326,202.802285 L31.6680457,202.209936 L31.6680457,11.9884108 Z M36.6275482,13.5376304 L38.5238286,14.1299791 L38.5238286,204.351505 L36.6275482,203.759156 L36.6275482,13.5376304 Z M41.5870507,15.08685 L43.4833311,15.6791986 L43.4833311,205.900724 L41.5870507,205.308376 L41.5870507,15.08685 Z M46.5465533,16.6360696 L48.4428336,17.2284182 L48.4428336,207.449944 L46.5465533,206.857595 L46.5465533,16.6360696 Z M51.5060558,18.1852891 L53.4023362,18.7776378 L53.4023362,208.999163 L51.5060558,208.406815 L51.5060558,18.1852891 Z M56.4655583,19.7345087 L58.3618387,20.3268574 L58.3618387,210.548383 L56.4655583,209.956034 L56.4655583,19.7345087 Z M61.4250609,21.2837283 L63.3213413,21.8760769 L63.3213413,212.097603 L61.4250609,211.505254 L61.4250609,21.2837283 Z" fill="#D8D8D8" mask="url(#mask-2)"></path>
                                </g>
                                <g id="box01-copy-3" transform="translate(10.807692, 0.000000)">
                                    <polygon id="Fill-1" fill="#C9D1DA" points="7.53419483 -1.32638995e-05 0.0307939657 4.34616868 7.58330016 8.69235063 15.086701 4.34616868"></polygon>
                                    <polygon id="Fill-1-Copy-3" fill="#F6F6F7" points="7.59256378 0.718865989 1.32882502 4.31319594 7.63355625 7.90752588 13.897295 4.31319594"></polygon>
                                    <polygon id="Fill-2" fill="#E4E4E4" points="7.58330016 8.69240369 7.55255943 19.504604 15.0559603 15.158422 15.086701 4.34622174"></polygon>
                                    <polygon id="Fill-3" fill="#ECECF3" points="0 15.1808263 7.5525062 19.5268756 7.58324693 8.71480791 0.030740735 4.36849332"></polygon>
                                    <g id="Group-3" transform="translate(0.000000, 4.368493)">
                                        <polygon id="Fill-3-Copy" fill="#ECECF3" points="0 10.8040309 7.49948353 15.0999004 7.53000845 4.31348009 0.0305249184 0.0173459137"></polygon>
                                        <path d="M0.830515638,1.27183983 L1.66103128,1.75684911 L1.66103128,10.9362148 L0.830515638,10.4512055 L0.830515638,1.27183983 Z M2.49154691,2.24185839 L3.32206255,2.72686767 L3.32206255,11.9062334 L2.49154691,11.4212241 L2.49154691,2.24185839 Z M4.15257819,3.21187695 L4.98309383,3.69688623 L4.98309383,12.8762519 L4.15257819,12.3912427 L4.15257819,3.21187695 Z M5.81360947,4.18189551 L6.64412511,4.66690479 L6.64412511,13.8462705 L5.81360947,13.3612612 L5.81360947,4.18189551 Z" id="Combined-Shape" fill="#D8D8D8"></path>
                                    </g>
                                    <g id="Group-3-Copy" transform="translate(11.301870, 11.977257) scale(-1, 1) translate(-11.301870, -11.977257) translate(7.488356, 4.368493)">
                                        <polygon id="Fill-3-Copy" fill="#F6F6F7" points="0 10.8040309 7.58537616 15.1583818 7.53000845 4.31348009 0.0305249184 0.0173459137"></polygon>
                                        <path d="M0.830515638,1.27183983 L1.66103128,1.75684911 L1.66103128,10.9362148 L0.830515638,10.4512055 L0.830515638,1.27183983 Z M2.49154691,2.24185839 L3.32206255,2.72686767 L3.32206255,11.9062334 L2.49154691,11.4212241 L2.49154691,2.24185839 Z M4.15257819,3.21187695 L4.98309383,3.69688623 L4.98309383,12.8762519 L4.15257819,12.3912427 L4.15257819,3.21187695 Z M5.81360947,4.18189551 L6.64412511,4.66690479 L6.64412511,13.8462705 L5.81360947,13.3612612 L5.81360947,4.18189551 Z" id="Combined-Shape" fill="#D8D8D8"></path>
                                    </g>
                                </g>
                                <g id="box01-copy-4" transform="translate(22.230769, 5.893333)">
                                    <polygon id="Fill-1" fill="#C9D1DA" points="7.53419483 -1.32638995e-05 0.0307939657 4.34616868 7.58330016 8.69235063 15.086701 4.34616868"></polygon>
                                    <polygon id="Fill-1-Copy-3" fill="#F6F6F7" points="7.59256378 0.718865989 1.32882502 4.31319594 7.63355625 7.90752588 13.897295 4.31319594"></polygon>
                                    <polygon id="Fill-2" fill="#E4E4E4" points="7.58330016 8.69240369 7.55255943 19.504604 15.0559603 15.158422 15.086701 4.34622174"></polygon>
                                    <polygon id="Fill-3" fill="#F6F6F7" points="0 15.1808263 7.5525062 19.5268756 7.58324693 8.71480791 0.030740735 4.36849332"></polygon>
                                    <g id="Group-3" transform="translate(0.000000, 4.368493)">
                                        <polygon id="Fill-3-Copy" fill="#ECECF3" points="0 10.8040309 7.49948353 15.0999004 7.53000845 4.31348009 0.0305249184 0.0173459137"></polygon>
                                        <path d="M0.830515638,1.27183983 L1.66103128,1.75684911 L1.66103128,10.9362148 L0.830515638,10.4512055 L0.830515638,1.27183983 Z M2.49154691,2.24185839 L3.32206255,2.72686767 L3.32206255,11.9062334 L2.49154691,11.4212241 L2.49154691,2.24185839 Z M4.15257819,3.21187695 L4.98309383,3.69688623 L4.98309383,12.8762519 L4.15257819,12.3912427 L4.15257819,3.21187695 Z M5.81360947,4.18189551 L6.64412511,4.66690479 L6.64412511,13.8462705 L5.81360947,13.3612612 L5.81360947,4.18189551 Z" id="Combined-Shape" fill="#D8D8D8"></path>
                                    </g>
                                    <g id="Group-3-Copy" transform="translate(11.301870, 11.977257) scale(-1, 1) translate(-11.301870, -11.977257) translate(7.488356, 4.368493)">
                                        <polygon id="Fill-3-Copy" fill="#F6F6F7" points="0 10.8040309 7.58537616 15.1583818 7.53000845 4.31348009 0.0305249184 0.0173459137"></polygon>
                                        <path d="M0.830515638,1.27183983 L1.66103128,1.75684911 L1.66103128,10.9362148 L0.830515638,10.4512055 L0.830515638,1.27183983 Z M2.49154691,2.24185839 L3.32206255,2.72686767 L3.32206255,11.9062334 L2.49154691,11.4212241 L2.49154691,2.24185839 Z M4.15257819,3.21187695 L4.98309383,3.69688623 L4.98309383,12.8762519 L4.15257819,12.3912427 L4.15257819,3.21187695 Z M5.81360947,4.18189551 L6.64412511,4.66690479 L6.64412511,13.8462705 L5.81360947,13.3612612 L5.81360947,4.18189551 Z" id="Combined-Shape" fill="#D8D8D8"></path>
                                    </g>
                                </g>
                                <g id="box01-copy-5" transform="translate(33.538462, 11.786667)">
                                    <polygon id="Fill-1" fill="#C9D1DA" points="7.53419483 -1.32638995e-05 0.0307939657 4.34616868 7.58330016 8.69235063 15.086701 4.34616868"></polygon>
                                    <polygon id="Fill-1-Copy-3" fill="#F6F6F7" points="7.59256378 0.718865989 1.32882502 4.31319594 7.63355625 7.90752588 13.897295 4.31319594"></polygon>
                                    <polygon id="Fill-2" fill="#E4E4E4" points="7.58330016 8.69240369 7.55255943 19.504604 15.0559603 15.158422 15.086701 4.34622174"></polygon>
                                    <polygon id="Fill-3" fill="#F6F6F7" points="0 15.1808263 7.5525062 19.5268756 7.58324693 8.71480791 0.030740735 4.36849332"></polygon>
                                    <g id="Group-3" transform="translate(0.000000, 4.368493)">
                                        <polygon id="Fill-3-Copy" fill="#F6F6F7" points="0 10.8040309 7.49948353 15.0999004 7.53000845 4.31348009 0.0305249184 0.0173459137"></polygon>
                                        <path d="M0.830515638,1.27183983 L1.66103128,1.75684911 L1.66103128,10.9362148 L0.830515638,10.4512055 L0.830515638,1.27183983 Z M2.49154691,2.24185839 L3.32206255,2.72686767 L3.32206255,11.9062334 L2.49154691,11.4212241 L2.49154691,2.24185839 Z M4.15257819,3.21187695 L4.98309383,3.69688623 L4.98309383,12.8762519 L4.15257819,12.3912427 L4.15257819,3.21187695 Z M5.81360947,4.18189551 L6.64412511,4.66690479 L6.64412511,13.8462705 L5.81360947,13.3612612 L5.81360947,4.18189551 Z" id="Combined-Shape" fill="#D8D8D8"></path>
                                    </g>
                                    <g id="Group-3-Copy" transform="translate(11.115385, 12.368493) scale(-1, 1) translate(-11.115385, -12.368493) translate(7.115385, 4.368493)">
                                        <polygon id="Fill-3-Copy" fill="#FFFFFF" points="0 10.8040309 7.58537616 15.1583818 7.53000845 4.31348009 0.0305249184 0.0173459137"></polygon>
                                        <path d="M0.830515638,1.27183983 L1.66103128,1.75684911 L1.66103128,10.9362148 L0.830515638,10.4512055 L0.830515638,1.27183983 Z M2.49154691,2.24185839 L3.32206255,2.72686767 L3.32206255,11.9062334 L2.49154691,11.4212241 L2.49154691,2.24185839 Z M4.15257819,3.21187695 L4.98309383,3.69688623 L4.98309383,12.8762519 L4.15257819,12.3912427 L4.15257819,3.21187695 Z M5.81360947,4.18189551 L6.64412511,4.66690479 L6.64412511,13.8462705 L5.81360947,13.3612612 L5.81360947,4.18189551 Z" id="Combined-Shape" fill="#D8D8D8"></path>
                                    </g>
                                </g>
                            </g>
                            <g id="楼1" transform="translate(85.923077, 48.071111)">
                                <polygon id="Fill-1" fill="#F6F6F7" points="0 162.781434 21.5473589 175.991111 21.5769231 46.6247726 0.0295642249 33.6266667"></polygon>
                                <polygon id="Fill-2" fill="#FAFAFF" points="22.0297282 46.87883 22 176.106667 56.5857583 155.227837 56.6153846 26"></polygon>
                                <polygon id="Fill-3" fill="#E2E3E5" points="34.4777102 12.8266667 0 33.7670067 21.5992129 46.8 56.0769231 25.8597661"></polygon>
                                <polygon id="Fill-3-Copy-2" fill="#FFFFFF" points="34.3846154 15.3688889 4.15384615 34.2044444 21.2307692 44.3733333 52.6153846 25.4222222"></polygon>
                                <path d="M10.943787,42.5605998 L9.56170752,43.4482252 L9.56170752,166.249832 L10.943787,165.362207 L10.943787,42.5605998 Z M8.17962806,44.3358507 L6.79754861,45.2234761 L6.79754861,168.025083 L8.17962806,167.137458 L8.17962806,44.3358507 Z M5.41546915,46.1111015 L4.03338969,46.998727 L4.03338969,169.800334 L5.41546915,168.912709 L5.41546915,46.1111015 Z M2.65131023,47.8863524 L2.65131023,170.687959 L1.26923077,171.575585 L1.26923077,48.7739778 L2.65131023,47.8863524 Z M19.2565511,37.5912734 L19.2565511,160.39288 L17.8744717,161.280506 L17.8744717,38.4788989 L19.2565511,37.5912734 Z M16.4923922,39.3665243 L16.4923922,162.168131 L15.1103128,163.055757 L15.1103128,40.2541497 L16.4923922,39.3665243 Z M13.7282333,41.1417751 L13.7282333,163.943382 L12.3461538,164.831008 L12.3461538,42.0294006 L13.7282333,41.1417751 Z" id="Combined-Shape-Copy-2" fill="#D8D8D8" transform="translate(10.262891, 104.583429) scale(-1, 1) translate(-10.262891, -104.583429) "></path>
                                <path d="M34.0207101,42.3294887 L32.6386306,43.2171141 L32.6386306,166.018721 L34.0207101,165.131096 L34.0207101,42.3294887 Z M31.2565511,44.1047396 L29.8744717,44.992365 L29.8744717,167.793972 L31.2565511,166.906347 L31.2565511,44.1047396 Z M28.4923922,45.8799904 L27.1103128,46.7676158 L27.1103128,169.569223 L28.4923922,168.681597 L28.4923922,45.8799904 Z M25.7282333,47.6552413 L25.7282333,170.456848 L24.3461538,171.344474 L24.3461538,48.5428667 L25.7282333,47.6552413 Z M45.0976331,35.5849115 L45.0976331,158.386518 L43.7155537,159.274144 L43.7155537,36.4725369 L45.0976331,35.5849115 Z M42.3334742,37.3601623 L42.3334742,160.161769 L40.9513948,161.049395 L40.9513948,38.2477877 L42.3334742,37.3601623 Z M39.5693153,39.1354132 L39.5693153,161.93702 L38.1872358,162.824646 L38.1872358,40.0230386 L39.5693153,39.1354132 Z M36.8051564,40.910664 L36.8051564,163.712271 L35.4230769,164.599896 L35.4230769,41.7982894 L36.8051564,40.910664 Z M53.2950127,30.7376003 L53.2950127,153.539207 L51.9129332,154.426833 L51.9129332,31.6252258 L53.2950127,30.7376003 Z M50.5308538,32.5128512 L50.5308538,155.314458 L49.1487743,156.202084 L49.1487743,33.4004766 L50.5308538,32.5128512 Z M47.7666948,34.288102 L47.7666948,157.089709 L46.3846154,157.977335 L46.3846154,35.1757275 L47.7666948,34.288102 Z" id="Combined-Shape-Copy-4" fill="#D8D8D8"></path>
                                <g id="box01-copy" transform="translate(24.923077, 0.000000)">
                                    <polygon id="Fill-1" fill="#C9D1DA" points="12.5378204 -2.21585144e-05 0.05124492 7.26065827 12.6195377 14.5213387 25.1061132 7.26065827"></polygon>
                                    <polygon id="Fill-1-Copy-3" fill="#F6F6F7" points="12.6349535 1.20092906 2.21132713 7.20557439 12.7031699 13.2102197 23.1267963 7.20557439"></polygon>
                                    <polygon id="Fill-2" fill="#E4E4E4" points="12.6195377 14.5214273 12.5683813 32.584162 25.0549568 25.3234815 25.1061132 7.2607469"></polygon>
                                    <polygon id="Fill-3" fill="#F6F6F7" points="0 25.3609098 12.5682928 32.6213686 12.6194491 14.5588556 0.0511563376 7.29795355"></polygon>
                                    <g id="Group-3" transform="translate(0.000000, 7.297954)">
                                        <polygon id="Fill-3-Copy" fill="#F6F6F7" points="0 18.0490868 12.4800566 25.2257159 12.5308538 7.2060491 0.0507971925 0.0289778794"></polygon>
                                        <path d="M1.38207946,2.12472065 L2.76415892,2.93497145 L2.76415892,18.2699118 L1.38207946,17.459661 L1.38207946,2.12472065 Z M4.14623838,3.74522225 L5.52831784,4.55547304 L5.52831784,19.8904134 L4.14623838,19.0801626 L4.14623838,3.74522225 Z M6.9103973,5.36572384 L8.29247675,6.17597464 L8.29247675,21.510915 L6.9103973,20.7006642 L6.9103973,5.36572384 Z M9.67455621,6.98622544 L11.0566357,7.79647623 L11.0566357,23.1314166 L9.67455621,22.3211658 L9.67455621,6.98622544 Z" id="Combined-Shape" fill="#D8D8D8"></path>
                                    </g>
                                    <g id="Group-3-Copy" transform="translate(18.842350, 20.000088) scale(-1, 1) translate(-18.842350, -20.000088) translate(12.530854, 7.297954)">
                                        <polygon id="Fill-3-Copy" fill="#FFFFFF" points="0 18.0490868 12.6229924 25.3234144 12.5308538 7.2060491 0.0507971925 0.0289778794"></polygon>
                                        <path d="M1.38207946,2.12472065 L2.76415892,2.93497145 L2.76415892,18.2699118 L1.38207946,17.459661 L1.38207946,2.12472065 Z M4.14623838,3.74522225 L5.52831784,4.55547304 L5.52831784,19.8904134 L4.14623838,19.0801626 L4.14623838,3.74522225 Z M6.9103973,5.36572384 L8.29247675,6.17597464 L8.29247675,21.510915 L6.9103973,20.7006642 L6.9103973,5.36572384 Z M9.67455621,6.98622544 L11.0566357,7.79647623 L11.0566357,23.1314166 L9.67455621,22.3211658 L9.67455621,6.98622544 Z" id="Combined-Shape" fill="#D8D8D8"></path>
                                    </g>
                                </g>
                                <g id="box01" transform="translate(7.961538, 9.475556)">
                                    <polygon id="Fill-1" fill="#C9D1DA" points="12.5378204 -2.21585144e-05 0.05124492 7.26065827 12.6195377 14.5213387 25.1061132 7.26065827"></polygon>
                                    <polygon id="Fill-1-Copy-3" fill="#F6F6F7" points="12.6349535 1.20092906 2.21132713 7.20557439 12.7031699 13.2102197 23.1267963 7.20557439"></polygon>
                                    <polygon id="Fill-2" fill="#E4E4E4" points="12.6195377 14.5214273 12.5683813 32.584162 25.0549568 25.3234815 25.1061132 7.2607469"></polygon>
                                    <polygon id="Fill-3" fill="#F6F6F7" points="0 25.3609098 12.5682928 32.6213686 12.6194491 14.5588556 0.0511563376 7.29795355"></polygon>
                                    <g id="Group-3" transform="translate(0.000000, 7.297954)">
                                        <polygon id="Fill-3-Copy" fill="#F6F6F7" points="0 18.0490868 12.4800566 25.2257159 12.5308538 7.2060491 0.0507971925 0.0289778794"></polygon>
                                        <path d="M1.38207946,2.12472065 L2.76415892,2.93497145 L2.76415892,18.2699118 L1.38207946,17.459661 L1.38207946,2.12472065 Z M4.14623838,3.74522225 L5.52831784,4.55547304 L5.52831784,19.8904134 L4.14623838,19.0801626 L4.14623838,3.74522225 Z M6.9103973,5.36572384 L8.29247675,6.17597464 L8.29247675,21.510915 L6.9103973,20.7006642 L6.9103973,5.36572384 Z M9.67455621,6.98622544 L11.0566357,7.79647623 L11.0566357,23.1314166 L9.67455621,22.3211658 L9.67455621,6.98622544 Z" id="Combined-Shape" fill="#D8D8D8"></path>
                                    </g>
                                    <g id="Group-3-Copy" transform="translate(18.653846, 20.297954) scale(-1, 1) translate(-18.653846, -20.297954) translate(12.153846, 7.297954)">
                                        <polygon id="Fill-3-Copy" fill="#FFFFFF" points="0 18.0490868 12.6229924 25.3234144 12.5308538 7.2060491 0.0507971925 0.0289778794"></polygon>
                                        <path d="M1.38207946,2.12472065 L2.76415892,2.93497145 L2.76415892,18.2699118 L1.38207946,17.459661 L1.38207946,2.12472065 Z M4.14623838,3.74522225 L5.52831784,4.55547304 L5.52831784,19.8904134 L4.14623838,19.0801626 L4.14623838,3.74522225 Z M6.9103973,5.36572384 L8.29247675,6.17597464 L8.29247675,21.510915 L6.9103973,20.7006642 L6.9103973,5.36572384 Z M9.67455621,6.98622544 L11.0566357,7.79647623 L11.0566357,23.1314166 L9.67455621,22.3211658 L9.67455621,6.98622544 Z" id="Combined-Shape" fill="#D8D8D8"></path>
                                    </g>
                                </g>
                            </g>
                        </g>
                    </g>
                </g>
            </g>
        </g>
    </g>
</svg>