<?xml version="1.0" encoding="UTF-8"?>
<svg width="103px" height="86px" viewBox="0 0 103 86" version="1.1" xmlns="http://www.w3.org/2000/svg" xmlns:xlink="http://www.w3.org/1999/xlink">
    <!-- Generator: Sketch 61.1 (89650) - https://sketch.com -->
    <title>dbox</title>
    <desc>Created with Sketch.</desc>
    <defs>
        <linearGradient x1="79.5872235%" y1="40.3431759%" x2="31.3863323%" y2="62.025484%" id="linearGradient-1">
            <stop stop-color="#13B886" offset="0%"></stop>
            <stop stop-color="#27F696" offset="100%"></stop>
        </linearGradient>
        <linearGradient x1="79.5872235%" y1="40.3442363%" x2="31.3863323%" y2="62.0241636%" id="linearGradient-2">
            <stop stop-color="#13B886" offset="0%"></stop>
            <stop stop-color="#27F696" offset="100%"></stop>
        </linearGradient>
        <linearGradient x1="79.9228806%" y1="23.4572426%" x2="39.5376716%" y2="35.066842%" id="linearGradient-3">
            <stop stop-color="#13B886" offset="0%"></stop>
            <stop stop-color="#20DF90" offset="100%"></stop>
        </linearGradient>
        <path d="M0.0496153846,1.52764444 L8.18169231,6.2608 C10.7928462,4.75095111 12.7998462,4.39665778 14.0501538,5.12419556 L14.0501538,5.12419556 L5.91807692,0.391502222 C5.50223077,0.149528889 5.00261538,0.0272711111 4.42523077,0.0272711111 L4.42523077,0.0272711111 C3.26607692,0.0272711111 1.79238462,0.52 0.0496153846,1.52764444" id="path-4"></path>
        <path d="M0.0496153846,1.52764444 L8.18169231,6.2608 C10.7928462,4.75095111 12.7998462,4.39665778 14.0501538,5.12419556 L14.0501538,5.12419556 L5.91807692,0.391502222 C5.50223077,0.149528889 5.00261538,0.0272711111 4.42523077,0.0272711111 L4.42523077,0.0272711111 C3.26607692,0.0272711111 1.79238462,0.52 0.0496153846,1.52764444" id="path-6"></path>
        <path d="M0.0496153846,1.52764444 L8.18169231,6.2608 C10.7928462,4.75095111 12.7998462,4.39665778 14.0501538,5.12419556 L14.0501538,5.12419556 L5.91807692,0.391502222 C5.50223077,0.149528889 5.00261538,0.0272711111 4.42523077,0.0272711111 L4.42523077,0.0272711111 C3.26607692,0.0272711111 1.79238462,0.52 0.0496153846,1.52764444" id="path-8"></path>
        <path d="M0.0496153846,1.52764444 L8.18169231,6.2608 C10.7928462,4.75095111 12.7998462,4.39665778 14.0501538,5.12419556 L14.0501538,5.12419556 L5.91807692,0.391502222 C5.50223077,0.149528889 5.00261538,0.0272711111 4.42523077,0.0272711111 L4.42523077,0.0272711111 C3.26607692,0.0272711111 1.79238462,0.52 0.0496153846,1.52764444" id="path-10"></path>
        <path d="M0.0496153846,1.52764444 L8.18169231,6.2608 C10.7928462,4.75095111 12.7998462,4.39665778 14.0501538,5.12419556 L14.0501538,5.12419556 L5.91807692,0.391502222 C5.50223077,0.149528889 5.00261538,0.0272711111 4.42523077,0.0272711111 L4.42523077,0.0272711111 C3.26607692,0.0272711111 1.79238462,0.52 0.0496153846,1.52764444" id="path-12"></path>
        <path d="M0.0496153846,1.52764444 L8.18169231,6.2608 C10.7928462,4.75095111 12.7998462,4.39665778 14.0501538,5.12419556 L14.0501538,5.12419556 L5.91807692,0.391502222 C5.50223077,0.149528889 5.00261538,0.0272711111 4.42523077,0.0272711111 L4.42523077,0.0272711111 C3.26607692,0.0272711111 1.79238462,0.52 0.0496153846,1.52764444" id="path-14"></path>
        <path d="M0.0496153846,1.52764444 L8.18169231,6.2608 C10.7928462,4.75095111 12.7998462,4.39665778 14.0501538,5.12419556 L14.0501538,5.12419556 L5.91807692,0.391502222 C5.50223077,0.149528889 5.00261538,0.0272711111 4.42523077,0.0272711111 L4.42523077,0.0272711111 C3.26607692,0.0272711111 1.79238462,0.52 0.0496153846,1.52764444" id="path-16"></path>
        <path d="M0.0496153846,1.52764444 L8.18169231,6.2608 C10.7928462,4.75095111 12.7998462,4.39665778 14.0501538,5.12419556 L14.0501538,5.12419556 L5.91807692,0.391502222 C5.50223077,0.149528889 5.00261538,0.0272711111 4.42523077,0.0272711111 L4.42523077,0.0272711111 C3.26607692,0.0272711111 1.79238462,0.52 0.0496153846,1.52764444" id="path-18"></path>
        <path d="M0.0496153846,1.52764444 L8.18169231,6.2608 C10.7928462,4.75095111 12.7998462,4.39665778 14.0501538,5.12419556 L14.0501538,5.12419556 L5.91807692,0.391502222 C5.50223077,0.149528889 5.00261538,0.0272711111 4.42523077,0.0272711111 L4.42523077,0.0272711111 C3.26607692,0.0272711111 1.79238462,0.52 0.0496153846,1.52764444" id="path-20"></path>
        <linearGradient x1="79.5872235%" y1="44.3155044%" x2="31.3863323%" y2="57.0788088%" id="linearGradient-22">
            <stop stop-color="#431476" offset="0%"></stop>
            <stop stop-color="#0F3178" offset="100%"></stop>
        </linearGradient>
        <path d="M0.0496153846,1.52764444 L8.18169231,6.2608 C10.7928462,4.75095111 12.7998462,4.39665778 14.0501538,5.12419556 L14.0501538,5.12419556 L5.91807692,0.391502222 C5.50223077,0.149528889 5.00261538,0.0272711111 4.42523077,0.0272711111 L4.42523077,0.0272711111 C3.26607692,0.0272711111 1.79238462,0.52 0.0496153846,1.52764444" id="path-23"></path>
        <linearGradient x1="79.5872235%" y1="42.7443784%" x2="31.3863323%" y2="59.0353061%" id="linearGradient-25">
            <stop stop-color="#13B886" offset="0%"></stop>
            <stop stop-color="#27F696" offset="100%"></stop>
        </linearGradient>
        <linearGradient x1="100%" y1="50%" x2="0.767702312%" y2="50%" id="linearGradient-26">
            <stop stop-color="#56D9ED" offset="0%"></stop>
            <stop stop-color="#3362BC" offset="100%"></stop>
        </linearGradient>
        <linearGradient x1="100%" y1="50%" x2="0.767702312%" y2="50%" id="linearGradient-27">
            <stop stop-color="#56D9ED" offset="0%"></stop>
            <stop stop-color="#3362BC" offset="100%"></stop>
        </linearGradient>
        <linearGradient x1="100%" y1="50%" x2="0.767702312%" y2="50%" id="linearGradient-28">
            <stop stop-color="#56D9ED" offset="0%"></stop>
            <stop stop-color="#3362BC" offset="100%"></stop>
        </linearGradient>
        <linearGradient x1="100%" y1="50%" x2="0.767702312%" y2="50%" id="linearGradient-29">
            <stop stop-color="#56D9ED" offset="0%"></stop>
            <stop stop-color="#3362BC" offset="100%"></stop>
        </linearGradient>
        <linearGradient x1="79.5872235%" y1="43.5385267%" x2="31.3863323%" y2="58.0463662%" id="linearGradient-30">
            <stop stop-color="#13B886" offset="0%"></stop>
            <stop stop-color="#27F696" offset="100%"></stop>
        </linearGradient>
        <path d="M9.68896154,25.9781831 L17.8210385,30.7113387 L8.13219231,36.313472 L0.000115384615,31.5805476 L9.68896154,25.9781831 Z M15.2626154,24.11552 L15.5490022,24.1227146 C16.3026382,24.1610746 16.975641,24.3527427 17.5647692,24.6956089 L17.5647692,24.6956089 L25.6968462,29.4285333 L25.5160935,29.3294358 C23.6829901,28.3846013 21.0837097,28.8246624 17.8211538,30.7112 L17.8211538,30.7112 L9.68907692,25.9782756 C11.8467692,24.7307378 13.7148462,24.1157511 15.2626154,24.11552 L15.2626154,24.11552 Z" id="path-31"></path>
        <linearGradient x1="100%" y1="50%" x2="0.767702312%" y2="50%" id="linearGradient-33">
            <stop stop-color="#13B886" offset="0%"></stop>
            <stop stop-color="#5EDA8C" offset="100%"></stop>
        </linearGradient>
    </defs>
    <g id="Page-1" stroke="none" stroke-width="1" fill="none" fill-rule="evenodd">
        <g id="首页-20191225" transform="translate(-1192.000000, -214.000000)">
            <g id="section-01" transform="translate(0.000000, 80.000000)">
                <g id="插图" transform="translate(69.000000, 56.000000)">
                    <g id="dbox" transform="translate(1123.269231, 78.408889)">
                        <g id="Group-410">
                            <polygon id="Fill-1" fill="#139C83" points="95.3388462 35.136608 87.2065385 30.4036836 82.8025385 24.5281458 90.9346154 29.2610702"></polygon>
                            <polygon id="Fill-2" fill="#DBDBDB" points="90.9553615 19.8880124 82.8232846 15.155088 83.1265154 14.9796747 91.2588231 19.7125991"></polygon>
                            <polygon id="Fill-3" fill="#139C83" points="80.0068846 44.0016604 71.8745769 39.268736 78.9192692 21.7787093 87.0513462 26.5116338"></polygon>
                            <polygon id="Fill-4" fill="#139C83" points="91.2589154 19.7126453 83.1266077 14.9797209 87.2742231 3.77221867 95.4067615 8.50514311"></polygon>
                            <polygon id="Fill-5" fill="url(#linearGradient-1)" points="87.2743846 3.77221867 95.4066923 8.50514311 101.930538 4.73271644 93.7984615 2.31111111e-05"></polygon>
                            <polygon id="Fill-6" fill="url(#linearGradient-2)" points="79.9478308 17.4435271 71.8157538 12.7106027 78.6580615 8.75421156 86.7901385 13.487136"></polygon>
                            <polygon id="Fill-7" fill="#139C83" points="87.0514385 26.5117031 78.9193615 21.7787787 71.8158231 12.7104409 79.9479 17.4435964"></polygon>
                            <path d="M66.4173649,46.9694299 C65.1433006,47.6459836 64.0512564,47.7110528 63.2016923,47.2162311 L63.2016923,47.2162311 L55.0693846,42.4835378 C55.9693846,43.0070044 57.1405385,42.9036978 58.512,42.1105244 L58.512,42.1105244 L58.7354452,41.976024 C61.8387906,40.0334189 63.8888211,35.6027849 63.8748462,30.5894044 C63.8663077,27.6147733 63.1299231,25.6849956 61.8800769,24.9576889 L61.8800769,24.9576889 L70.0123846,29.6906133 L70.1491087,29.7763904 C71.3155655,30.5625309 71.9989343,32.4581004 72.0072272,35.32256 L72.0072272,35.32256 L72.0047395,35.6796107 C71.9211479,40.6637409 69.797458,45.0204068 66.6440769,46.84368 L66.6440769,46.84368 Z" id="Combined-Shape" fill="#139C83"></path>
                            <path d="M66.235963,24.6579699 C59.4947678,28.7309738 55.2128692,36.5343333 55.2369231,45.0190578 L55.2369231,45.0190578 L55.2412854,45.4194824 C55.3219648,49.6450705 56.492979,52.4099421 58.5230769,53.5916622 L58.5230769,53.5916622 L50.391,48.8585067 L50.2032016,48.7431255 C48.227009,47.4629731 47.1169201,44.6026656 47.1045165,40.2859022 C47.0803846,31.6576 51.5088462,23.7334933 58.4483077,19.7209422 L58.4483077,19.7209422 L58.8138015,19.514674 C60.7506412,18.448582 62.4871629,17.9261333 63.9777692,17.9261333 L63.9777692,17.9261333 L64.2972741,17.9343088 C65.1388974,17.9778908 65.8970513,18.1955575 66.5633077,18.5834133 L66.5633077,18.5834133 L74.6953846,23.3163378 L74.5018652,23.2098199 C72.5416514,22.1912915 69.833129,22.5733752 66.5808462,24.4540978 L66.5808462,24.4540978 Z" id="Combined-Shape" fill="url(#linearGradient-3)"></path>
                            <path d="M37.3144615,48.7390222 L45.4465385,53.4719467 L45.5540285,53.5427209 C45.967636,53.8492759 46.1845224,54.4371733 46.1870988,55.30096 L46.1870988,55.30096 L46.1826845,55.5403305 C46.0973312,57.6860261 44.7826071,59.5945587 42.4396154,60.9490844 L42.4396154,60.9490844 L42.4382154,60.9480222 L38.8902923,63.0015129 L30.7582154,58.2685884 L34.3076769,56.2163218 L34.5636291,56.0635784 C36.8301767,54.6680658 38.061,52.731087 38.0547692,50.5680356 C38.0522308,49.6322667 37.7974615,49.0200533 37.3144615,48.7390222 L37.3144615,48.7390222 Z" id="Combined-Shape" fill="#139C83"></path>
                            <path d="M38.6457692,44.5318756 L46.7778462,49.2650311 C48.2845385,48.4852622 49.6216154,48.43072 50.5855385,48.9916267 L50.5855385,48.9916267 L42.4532308,44.2587022 C42.0306923,44.0125689 41.5361538,43.8849956 40.9871538,43.8849956 L40.9871538,43.8849956 C40.284,43.8849956 39.4915385,44.0941511 38.6457692,44.5318756" id="Clip-237" fill="#5C8830"></path>
                            <path d="M38.8594154,52.0363769 L30.7271077,47.3034524 L33.8284154,45.5102613 L34.0811924,45.3585494 C36.0681655,44.1223744 37.2138738,42.3363477 37.209,40.5343467 C37.2064615,39.6831644 36.969,39.1204089 36.5275385,38.8634133 L36.5275385,38.8634133 L44.6596154,43.5963378 L44.7579011,43.6610644 C45.1364161,43.9416191 45.338735,44.4815822 45.3410938,45.2675022 L45.3410938,45.2675022 L45.3361828,45.4839283 C45.2494103,47.2862981 44.0206154,49.0519733 41.961,50.2428622 L41.961,50.2428622 L38.8594154,52.0363769 Z" id="Combined-Shape" fill="#139C83"></path>
                            <g id="Group-317" transform="translate(35.538462, 32.129760)">
                                <g id="Group-289">
                                    <mask id="mask-5" fill="white">
                                        <use xlink:href="#path-4"></use>
                                    </mask>
                                    <g id="Clip-288"></g>
                                    <path d="M8.18176154,6.26068444 L0.0496846154,1.52776 C0.673223077,1.16722667 1.26237692,0.87256 1.81483846,0.642604444 L9.94714615,5.37576 C9.39468462,5.60548444 8.80553077,5.89992 8.18176154,6.26068444" id="Fill-287" fill="#CCCCCC" mask="url(#mask-5)"></path>
                                </g>
                                <g id="Group-292">
                                    <mask id="mask-7" fill="white">
                                        <use xlink:href="#path-6"></use>
                                    </mask>
                                    <g id="Clip-291"></g>
                                    <path d="M9.94723846,5.37573689 L1.81493077,0.642812444 C2.21762308,0.475488 2.6007,0.342599111 2.9637,0.243683556 L11.0960077,4.97637689 C10.7330077,5.07529244 10.3497,5.20818133 9.94723846,5.37573689" id="Fill-290" fill="#C7C7C7" mask="url(#mask-7)"></path>
                                </g>
                                <g id="Group-295">
                                    <mask id="mask-9" fill="white">
                                        <use xlink:href="#path-8"></use>
                                    </mask>
                                    <g id="Clip-294"></g>
                                    <path d="M11.0958923,4.97649244 L2.96381538,0.243568 C3.21835385,0.174234667 3.4632,0.121541333 3.69766154,0.0857191111 L11.8299692,4.81841244 C11.5952769,4.85469689 11.3506615,4.90715911 11.0958923,4.97649244" id="Fill-293" fill="#C2C2C2" mask="url(#mask-9)"></path>
                                </g>
                                <g id="Group-298">
                                    <mask id="mask-11" fill="white">
                                        <use xlink:href="#path-10"></use>
                                    </mask>
                                    <g id="Clip-297"></g>
                                    <path d="M11.8299,4.81850489 L3.69782308,0.0855804444 C3.88266923,0.0571537778 4.06174615,0.0391271111 4.23413077,0.0315004444 L12.3662077,4.76442489 C12.1940538,4.77228267 12.0152077,4.79030933 11.8299,4.81850489" id="Fill-296" fill="#BDBDBD" mask="url(#mask-11)"></path>
                                </g>
                                <g id="Group-301">
                                    <mask id="mask-13" fill="white">
                                        <use xlink:href="#path-12"></use>
                                    </mask>
                                    <g id="Clip-300"></g>
                                    <path d="M12.3662538,4.76433244 L4.23417692,0.031408 C4.38371538,0.0247057778 4.52863846,0.0258613333 4.66848462,0.0346435556 L12.8005615,4.767568 C12.6607154,4.75878578 12.5160231,4.75786133 12.3662538,4.76433244" id="Fill-299" fill="#B8B8B8" mask="url(#mask-13)"></path>
                                </g>
                                <g id="Group-304">
                                    <mask id="mask-15" fill="white">
                                        <use xlink:href="#path-14"></use>
                                    </mask>
                                    <g id="Clip-303"></g>
                                    <path d="M12.8005154,4.76749867 L4.66843846,0.0345742222 C4.79420769,0.0426631111 4.91605385,0.0567608889 5.03374615,0.0770986667 L13.1658231,4.81025422 C13.0481308,4.78968533 12.9265154,4.77558756 12.8005154,4.76749867" id="Fill-302" fill="#B3B3B3" mask="url(#mask-15)"></path>
                                </g>
                                <g id="Group-307">
                                    <mask id="mask-17" fill="white">
                                        <use xlink:href="#path-16"></use>
                                    </mask>
                                    <g id="Clip-306"></g>
                                    <path d="M13.1658462,4.81013867 L5.03376923,0.0772142222 C5.142,0.0961653333 5.247,0.120200889 5.34830769,0.149552 L13.4806154,4.88247644 C13.3793077,4.85312533 13.2743077,4.82885867 13.1658462,4.81013867" id="Fill-305" fill="#ADADAD" mask="url(#mask-17)"></path>
                                </g>
                                <g id="Group-310">
                                    <mask id="mask-19" fill="white">
                                        <use xlink:href="#path-18"></use>
                                    </mask>
                                    <g id="Clip-309"></g>
                                    <path d="M13.4806615,4.882592 L5.34835385,0.149667556 C5.4462,0.178094222 5.54058462,0.211143111 5.63173846,0.249276444 L13.7640462,4.98220089 C13.6728923,4.94429867 13.5785077,4.91078756 13.4806615,4.882592" id="Fill-308" fill="#A8A8A8" mask="url(#mask-19)"></path>
                                </g>
                                <g id="Group-313">
                                    <mask id="mask-21" fill="white">
                                        <use xlink:href="#path-20"></use>
                                    </mask>
                                    <g id="Clip-312"></g>
                                    <path d="M13.7639538,4.98213156 L5.63187692,0.249207111 C5.72118462,0.286878222 5.80772308,0.328940444 5.8908,0.375856 L14.0231077,5.10901156 C13.9400308,5.062096 13.8537231,5.01980267 13.7639538,4.98213156" id="Fill-311" fill="#A3A3A3" mask="url(#mask-21)"></path>
                                </g>
                                <g id="Group-316">
                                    <mask id="mask-24" fill="white">
                                        <use xlink:href="#path-23"></use>
                                    </mask>
                                    <use id="Clip-315" fill="url(#linearGradient-22)" xlink:href="#path-23"></use>
                                    <path d="M14.0231077,5.10896533 L5.8908,0.376040889 C5.90003077,0.381125333 5.90903077,0.386209778 5.91803077,0.391525333 L14.0501077,5.12421867 C14.0411077,5.11913422 14.0321077,5.11381867 14.0231077,5.10896533" id="Fill-314" fill="#9E9E9E" mask="url(#mask-24)"></path>
                                </g>
                            </g>
                            <path d="M32.9617385,44.6112622 L24.8294308,39.8783378 L35.5881231,33.65752 L35.9116818,33.4744999 C37.513829,32.5900936 38.8769856,32.1570311 39.9636923,32.1570311 L39.9636923,32.1570311 L40.206364,32.1645089 C40.6821146,32.1944051 41.1000989,32.3138565 41.4565385,32.5212622 L41.4565385,32.5212622 L49.5886154,37.2539556 L49.4465861,37.1775738 C48.1888123,36.5542469 46.2345983,36.9366314 43.7201538,38.39056 L43.7201538,38.39056 L32.9617385,44.6112622 Z" id="Combined-Shape" fill="url(#linearGradient-25)"></path>
                            <polygon id="Fill-319" fill="#139C83" points="33.0367846 71.15992 24.9047077 66.4269956 24.8294769 39.8781067 32.9617846 44.6112622"></polygon>
                            <path d="M14.0605154,76.6957476 L5.92820769,71.9628231 L8.69374615,70.3639964 L8.97580214,70.1956509 C12.5994676,67.9672958 14.5528558,64.1168956 14.5382308,58.9871822 C14.5308462,56.3619911 13.9130769,54.7065422 12.7839231,54.0490311 L12.7839231,54.0490311 L20.916,58.7819556 L21.0490885,58.8656196 C22.0940246,59.5732412 22.6632309,61.1999232 22.6706175,63.7201067 L22.6706175,63.7201067 L22.6678436,64.1121713 C22.5814644,69.1760644 20.5352019,72.9520596 16.8260769,75.0967822 L16.8260769,75.0967822 L14.0605154,76.6957476 Z" id="Combined-Shape" fill="#139C83"></path>
                            <polygon id="Fill-398" fill="url(#linearGradient-26)" points="95.4065769 8.50505067 91.2589615 19.712784 90.9552692 19.8879662 86.7903462 13.4871129 79.9478077 17.443504 87.0515769 26.5116107 80.0068846 44.0016373 86.2422692 40.396304 90.6310385 29.436784 90.9345 29.2611396 95.3389615 35.1364462 101.941038 31.319184 94.5970385 22.2235751 101.930654 4.73285511"></polygon>
                            <g id="Group-409" transform="translate(0.000000, 22.654204)">
                                <path d="M66.6441231,24.1894062 C69.8723538,22.3229529 72.0217385,17.8005707 72.0070449,12.6682862 C71.9926615,7.55287289 69.8248154,5.52695289 66.5965846,7.39340622 C63.3508154,9.27002844 61.2014308,13.7924107 61.2161244,18.9075929 C61.2305077,24.0401084 63.3658154,26.0849796 66.6441231,24.1894062 M66.5808923,1.799824 C73.5028154,-2.20232711 77.9615077,0.582561778 77.9860704,9.21109511 C78.0104308,17.8569618 73.5981231,25.7713618 66.6598154,29.7829884 C59.6894308,33.8135662 55.2614308,31.0104196 55.2368684,22.364784 C55.2125077,13.7364818 59.6409692,5.81237511 66.5808923,1.799824" id="Fill-399" fill="url(#linearGradient-27)"></path>
                                <path d="M38.8422923,23.3308516 L38.8593692,29.3822649 L41.9609077,27.5888427 C44.1031385,26.3500871 45.3465231,24.4901049 45.341003,22.6132516 C45.3356769,20.7174471 44.1654462,20.2529138 42.1676769,21.4080071 L38.8422923,23.3308516 L38.8422923,23.3308516 Z M42.4397538,38.2948338 C44.8692923,36.8901404 46.1932154,34.8898738 46.1870065,32.6467093 C46.1809846,30.4747271 44.8176,30.0471716 42.3878308,31.4518649 L38.8709077,33.4854116 L38.8902923,40.3473316 L42.4397538,38.2948338 L42.4397538,38.2948338 Z M46.7779846,26.6105493 C49.8003692,25.0463893 52.1419846,26.4013938 52.1514877,29.7874027 C52.1646,34.4415182 49.0554462,39.243776 44.1153692,42.1000782 L33.0368308,48.5057849 L32.9618308,21.9571271 L43.7202923,15.7363093 C48.3246,13.0739093 51.0499846,14.0048249 51.0617538,18.1250738 C51.0698308,20.9767538 49.2218308,24.4605227 46.7770615,26.2613404 L46.7779846,26.6105493 Z" id="Fill-401" fill="url(#linearGradient-28)"></path>
                                <path d="M16.8261462,52.4425084 C20.6301462,50.2427929 22.6853769,46.3273084 22.6704585,41.0658329 C22.6565308,36.1165884 20.4739154,34.6136729 16.7818385,36.7486773 L14.0160692,38.3477351 L14.0606077,54.0415662 L16.8261462,52.4425084 L16.8261462,52.4425084 Z M17.8212231,30.7113618 C24.6960692,26.7362507 28.6256077,29.1820996 28.649036,37.480144 C28.6738385,46.2001973 24.8345308,53.2481618 17.8964538,57.2600196 L8.20737692,62.8621529 L8.13214615,36.3134951 L17.8212231,30.7113618 Z" id="Fill-403" fill="url(#linearGradient-29)"></path>
                                <polygon id="Fill-405" fill="#139C83" points="8.20744615 62.8621529 0.0751384615 58.1292284 0.000138461538 31.5803396 8.13221538 36.3134951"></polygon>
                                <mask id="mask-32" fill="white">
                                    <use xlink:href="#path-31"></use>
                                </mask>
                                <use id="Combined-Shape" fill="url(#linearGradient-30)" xlink:href="#path-31"></use>
                            </g>
                        </g>
                        <path d="M28.5938129,60.0236 C28.6186154,68.7436533 24.7793077,75.7916178 17.8412308,79.8034756 L8.15215385,85.4056089 L8.07692308,58.8569511 L17.766,53.2548178 C24.6408462,49.2797067 28.5703846,51.7255556 28.5938129,60.0236 Z M16.7266154,59.2921333 L13.9608462,60.8911911 L14.0053846,76.5850222 L16.7709231,74.9859644 C20.5749231,72.7862489 22.6301538,68.8707644 22.6152354,63.6092889 C22.6013077,58.6600444 20.4186923,57.1571289 16.7266154,59.2921333 Z M51.0065308,40.6685298 C51.0146077,43.5202098 49.1666077,47.0039787 46.7218385,48.8047964 L46.7227615,49.1540053 C49.7451462,47.5898453 52.0867615,48.9448498 52.0962647,52.3308587 C52.1093769,56.9849742 49.0002231,61.787232 44.0601462,64.6435342 L32.9816077,71.0492409 L32.9066077,44.5005831 L43.6650692,38.2797653 C48.2693769,35.6173653 50.9947615,36.5482809 51.0065308,40.6685298 Z M42.3326077,53.9953209 L38.8156846,56.0288676 L38.8350692,62.8907876 L42.3845308,60.8382898 C44.8140692,59.4335964 46.1379923,57.4333298 46.1317834,55.1901653 C46.1257615,53.0181831 44.7623769,52.5906276 42.3326077,53.9953209 Z M77.9308473,31.7545511 C77.9552077,40.4004178 73.5429,48.3148178 66.6045923,52.3264444 C59.6342077,56.3570222 55.2062077,53.5538756 55.1816453,44.90824 C55.1572846,36.2799378 59.5857462,28.3558311 66.5256692,24.34328 C73.4475923,20.3411289 77.9062846,23.1260178 77.9308473,31.7545511 Z M42.1124538,43.9514631 L38.7870692,45.8743076 L38.8041462,51.9257209 L41.9056846,50.1322987 C44.0479154,48.8935431 45.2913,47.0335609 45.28578,45.1567076 C45.2804538,43.2609031 44.1102231,42.7963698 42.1124538,43.9514631 Z M66.5413615,29.9368622 C63.2955923,31.8134844 61.1462077,36.3358667 61.1609013,41.4510489 C61.1752846,46.5835644 63.3105923,48.6284356 66.5889,46.7328622 C69.8171308,44.8664089 71.9665154,40.3440267 71.9518218,35.2117422 C71.9374385,30.0963289 69.7695923,28.0704089 66.5413615,29.9368622 Z M101.875315,4.62222222 L94.5417,22.1129422 L101.885931,31.20832 L95.2836231,35.0258133 L90.8793923,29.1505067 L90.5757,29.32592 L86.1869308,40.28544 L79.9515462,43.8910044 L86.9962385,26.4007467 L79.8927,17.33264 L86.7350077,13.3762489 L90.9001615,19.7773333 L91.2036231,19.60192 L95.3514692,8.39441778 L101.875315,4.62222222 Z" id="Combined-Shape" fill="url(#linearGradient-33)"></path>
                    </g>
                </g>
            </g>
        </g>
    </g>
</svg>