<?xml version="1.0" encoding="UTF-8"?>
<svg width="339px" height="232px" viewBox="0 0 339 232" version="1.1" xmlns="http://www.w3.org/2000/svg" xmlns:xlink="http://www.w3.org/1999/xlink">
    <!-- Generator: Sketch 61.1 (89650) - https://sketch.com -->
    <title>principle_01</title>
    <desc>Created with Sketch.</desc>
    <defs>
        <rect id="path-1" x="59" y="0" width="256" height="184" rx="8"></rect>
        <filter x="-15.6%" y="-17.4%" width="131.2%" height="143.5%" filterUnits="objectBoundingBox" id="filter-2">
            <feOffset dx="0" dy="8" in="SourceAlpha" result="shadowOffsetOuter1"></feOffset>
            <feGaussianBlur stdDeviation="12" in="shadowOffsetOuter1" result="shadowBlurOuter1"></feGaussianBlur>
            <feColorMatrix values="0 0 0 0 1   0 0 0 0 0.521367521   0 0 0 0 0  0 0 0 0.3 0" type="matrix" in="shadowBlurOuter1"></feColorMatrix>
        </filter>
        <linearGradient x1="0%" y1="-8.8817842e-14%" x2="100%" y2="100%" id="linearGradient-3">
            <stop stop-color="#FFD060" offset="0%"></stop>
            <stop stop-color="#FF8004" offset="100%"></stop>
        </linearGradient>
        <rect id="path-4" x="0" y="0" width="104" height="104" rx="52"></rect>
        <filter x="-16.8%" y="-13.0%" width="137.5%" height="137.5%" filterUnits="objectBoundingBox" id="filter-6">
            <feOffset dx="2" dy="6" in="SourceAlpha" result="shadowOffsetOuter1"></feOffset>
            <feGaussianBlur stdDeviation="5.5" in="shadowOffsetOuter1" result="shadowBlurOuter1"></feGaussianBlur>
            <feColorMatrix values="0 0 0 0 1   0 0 0 0 0.516949153   0 0 0 0 0  0 0 0 0.3 0" type="matrix" in="shadowBlurOuter1"></feColorMatrix>
        </filter>
        <linearGradient x1="49.7885798%" y1="10.5635287%" x2="13.5896059%" y2="64.7565663%" id="linearGradient-7">
            <stop stop-color="#FFFFFF" stop-opacity="0.39" offset="0%"></stop>
            <stop stop-color="#FFFFFF" stop-opacity="0" offset="100%"></stop>
        </linearGradient>
        <path d="M27.4048156,51.9990268 C26.9271624,52.0054394 26.4667765,51.8153496 26.1258224,51.4709403 C25.5994551,50.9437648 25.4574084,50.1301904 25.7725094,49.4473361 C28.2336209,43.9386412 27.0493269,37.4308605 22.8181059,33.2126767 C20.0644587,30.4671259 16.3787506,28.935999 12.5451765,28.9450686 C10.4820145,28.9427695 8.44043965,29.3772956 6.5473346,30.2216413 C5.86425399,30.5363337 5.06436079,30.3974746 4.51931784,29.8695836 C3.99295055,29.3424082 3.85090377,28.5288337 4.16600481,27.8459794 C5.08072046,25.8440519 6.335087,24.0261828 7.87013852,22.4778274 C11.306728,19.0429132 15.914573,17.1318218 20.7045874,17.1547736 L21.4981285,17.1547736 C24.4045595,12.0222938 28.912186,8.05283486 34.2880599,5.89183774 C37.3795364,4.64716772 40.6691022,4.00583488 43.9886222,4.00029982 C46.0074084,3.99038314 48.0202582,4.22649272 49.9850509,4.70400676 C50.6351681,4.84708058 51.1488355,5.3597432 51.3078548,6.02422306 C53.3710719,14.7631199 50.7476078,23.9712023 44.4260238,30.1787252 C42.745609,31.8631888 40.8462153,33.299426 38.7822015,34.4463334 C39.0552496,41.9413142 34.8124237,48.8341723 28.1121483,51.7808092 C27.9069348,51.9328337 27.6581414,52.0096652 27.4055222,51.9990268 L27.4048156,51.9990268 Z M12.4561416,25.3379322 C17.2467173,25.3074596 21.8563455,27.2197119 25.287764,30.660986 C27.920699,33.2794063 29.6934755,36.6789202 30.3585124,40.3847607 C30.6956293,42.2576229 30.7254855,44.1753971 30.4468407,46.0584173 C30.6227906,45.926032 30.7556363,45.7500032 30.9315862,45.6219822 C34.0574747,42.5347819 35.6063497,38.1238453 35.1204654,33.6927554 C35.0312647,32.9262298 35.4448564,32.1912546 36.1351804,31.8895509 C38.2709771,30.8333151 40.2225766,29.4211012 41.9111416,27.7099572 C47.0612877,22.648521 49.3684627,15.2451001 48.0397093,8.04419027 C46.7014427,7.79409586 45.3430226,7.67620757 43.9829692,7.69213263 C38.1449366,7.65944055 32.5264823,9.98085631 28.3304957,14.1593738 C26.6521489,15.8450275 25.2389373,17.7893462 24.1416165,19.9224997 C23.7860671,20.5935694 23.0712524,20.9762884 22.3333604,20.8906583 C21.8040975,20.8470148 21.2310238,20.8026439 20.7081205,20.8026439 C16.8704171,20.7725098 13.1770292,22.3067215 10.4344845,25.070252 C10.2769401,25.2200244 10.1304958,25.3817137 9.99637632,25.5539676 C10.8093549,25.3901384 11.6371181,25.3169767 12.4653277,25.33575 L12.4589681,25.33575 L12.4561416,25.3379322 Z M10.0317076,49.4007835 C9.47190857,49.4007835 8.91247001,49.3715458 8.35559063,49.3127686 C7.57374592,49.1929517 6.95301204,48.5735785 6.81231935,47.77288 C6.76850855,47.5088368 5.88663921,40.8626571 10.4281248,36.2895444 C12.5882807,34.1342823 14.3965367,33.1617593 16.2040861,33.1617593 C18.3649486,33.1617593 19.8637024,34.657277 20.6558302,35.4494068 C21.447958,36.2415366 22.8605035,37.6490398 22.9488317,39.7170149 C23.03716,41.5645903 22.0231516,43.4565366 19.8163585,45.7005405 C16.5983835,48.9119757 12.321176,49.3964187 10.0274679,49.3964187 L10.0317076,49.4007835 Z M16.2047927,36.7754421 C15.7666846,36.7754421 14.7915406,37.0394854 12.9861111,38.8434173 C11.5663512,40.3120423 10.6793379,42.2378301 10.4733489,44.2988564 C10.3912403,44.7932642 10.3470576,45.2935571 10.3412098,45.7951015 C12.107775,45.7507306 15.1017495,45.3106585 17.307836,43.1553963 C19.1599029,41.307821 19.4277141,40.2960189 19.3803702,39.8995903 C19.1706232,39.1642371 18.7390183,38.5166559 18.1480144,38.0505601 C17.2223342,37.0824015 16.6930713,36.7747148 16.206206,36.7747148 L16.2047927,36.7754421 Z M39.000549,21.8180829 C36.097183,21.7235928 33.8087653,19.2408655 33.8694825,16.2513373 C33.9301998,13.2618091 36.317422,10.8797072 39.2220876,10.9102131 C42.1267531,10.940719 44.466264,13.3724627 44.4677147,16.3626438 C44.4212416,19.4225276 41.9745106,21.8646419 39.0019622,21.8180829 L39.000549,21.8180829 Z M39.000549,14.5594394 C38.018765,14.5492829 37.2125956,15.3557671 37.1944128,16.3662808 C37.2292797,17.3693641 38.0269029,18.165391 39.0019622,18.1702126 C39.9831806,18.1808009 40.7897402,17.37617 40.8102183,16.3662808 C40.8055455,15.3663118 40.0150809,14.5591272 39.0436532,14.5623489 L39.0040821,14.5623489 L39.000549,14.5594394 Z" id="path-8"></path>
        <filter x="-7.3%" y="-7.3%" width="122.9%" height="129.2%" filterUnits="objectBoundingBox" id="filter-9">
            <feOffset dx="2" dy="5" in="SourceAlpha" result="shadowOffsetOuter1"></feOffset>
            <feGaussianBlur stdDeviation="1" in="shadowOffsetOuter1" result="shadowBlurOuter1"></feGaussianBlur>
            <feComposite in="shadowBlurOuter1" in2="SourceAlpha" operator="out" result="shadowBlurOuter1"></feComposite>
            <feColorMatrix values="0 0 0 0 1   0 0 0 0 0.521551724   0 0 0 0 0  0 0 0 0.5 0" type="matrix" in="shadowBlurOuter1"></feColorMatrix>
        </filter>
    </defs>
    <g id="Page-1" stroke="none" stroke-width="1" fill="none" fill-rule="evenodd">
        <g id="首页-20191225" transform="translate(-120.000000, -936.000000)">
            <g id="section-02" transform="translate(0.000000, 754.000000)">
                <g id="Stacked-Group" transform="translate(120.000000, 0.000000)">
                    <g id="编组-4" transform="translate(0.000000, 198.000000)">
                        <g id="高效">
                            <g id="principle_01">
                                <g id="shadow" fill="black" fill-opacity="1">
                                    <use filter="url(#filter-2)" xlink:href="#path-1"></use>
                                </g>
                                <rect id="bg" stroke="#FF9016" fill="#FFFFFF" x="37" y="0" width="300" height="184" rx="8"></rect>
                                <g id="编组-2" transform="translate(0.000000, 40.000000)">
                                    <g id="bg">
                                        <mask id="mask-5" fill="white">
                                            <use xlink:href="#path-4"></use>
                                        </mask>
                                        <g id="蒙版" transform="translate(52.000000, 52.000000) rotate(-360.000000) translate(-52.000000, -52.000000) ">
                                            <use fill="black" fill-opacity="1" filter="url(#filter-6)" xlink:href="#path-4"></use>
                                            <use fill="url(#linearGradient-3)" fill-rule="evenodd" xlink:href="#path-4"></use>
                                        </g>
                                        <path d="M-9.46803926,40 C-1.93325257,52.8300353 15.8813277,60.0210318 43.9757016,61.5729895 C86.1172624,63.900926 120.963414,100.021436 124.473533,110.934576 C126.813612,118.210002 121.352681,123.898477 108.090741,128 L-15,128 L-9.46803926,40 Z" id="路径" fill="url(#linearGradient-7)" mask="url(#mask-5)"></path>
                                    </g>
                                    <g id="插图" transform="translate(24.000000, 24.000000)" fill-rule="nonzero">
                                        <g id="形状">
                                            <use fill="black" fill-opacity="1" filter="url(#filter-9)" xlink:href="#path-8"></use>
                                            <use fill-opacity="0.9" fill="#FFFFFF" xlink:href="#path-8"></use>
                                        </g>
                                    </g>
                                </g>
                            </g>
                        </g>
                    </g>
                </g>
            </g>
        </g>
    </g>
</svg>