<?xml version="1.0" encoding="UTF-8"?>
<svg width="115px" height="100px" viewBox="0 0 115 100" version="1.1" xmlns="http://www.w3.org/2000/svg" xmlns:xlink="http://www.w3.org/1999/xlink">
    <!-- Generator: Sketch 61.1 (89650) - https://sketch.com -->
    <title>Tower_up_crane</title>
    <desc>Created with Sketch.</desc>
    <defs>
        <linearGradient x1="59.9988989%" y1="21.3243375%" x2="43.709576%" y2="85.7093303%" id="linearGradient-1">
            <stop stop-color="#13B886" offset="0%"></stop>
            <stop stop-color="#27F696" offset="100%"></stop>
        </linearGradient>
        <linearGradient x1="3.65110188%" y1="50%" x2="100%" y2="50%" id="linearGradient-2">
            <stop stop-color="#F7BD1C" offset="0%"></stop>
            <stop stop-color="#FAD961" offset="50.3612717%"></stop>
            <stop stop-color="#F7BD1C" offset="100%"></stop>
        </linearGradient>
        <linearGradient x1="3.65110188%" y1="50%" x2="100%" y2="50%" id="linearGradient-3">
            <stop stop-color="#F7BD1C" offset="0%"></stop>
            <stop stop-color="#FAD961" offset="50.3612717%"></stop>
            <stop stop-color="#F7BD1C" offset="100%"></stop>
        </linearGradient>
        <linearGradient x1="3.65110188%" y1="50%" x2="100%" y2="50%" id="linearGradient-4">
            <stop stop-color="#F7BD1C" offset="0%"></stop>
            <stop stop-color="#FAD961" offset="50.3612717%"></stop>
            <stop stop-color="#F7BD1C" offset="100%"></stop>
        </linearGradient>
    </defs>
    <g id="Page-1" stroke="none" stroke-width="1" fill="none" fill-rule="evenodd">
        <g id="首页-20191225" transform="translate(-897.000000, -185.000000)">
            <g id="section-01" transform="translate(0.000000, 80.000000)">
                <g id="插图" transform="translate(69.000000, 56.000000)">
                    <g id="Tower_up_crane" transform="translate(884.692308, 99.773333) scale(-1, 1) translate(-884.692308, -99.773333) translate(827.192308, 49.773333)">
                        <g id="挂钩" transform="translate(6.089837, 57.814607)">
                            <g id="Group-6" transform="translate(0.000000, 14.557635)">
                                <polygon id="Fill-1" fill="#08A676" points="4.53805891 21.6183602 3.04482895 20.7508802 12.0618362 15.5468472 13.5550662 16.4143273"></polygon>
                                <polygon id="Fill-2" fill="#08A676" points="13.5550874 16.4142637 12.0618574 15.5467837 12.0324081 5.18785241 13.525638 6.05533243"></polygon>
                                <path d="M1.49320878,9.54149657 L1.54214977,26.8055349 L16.5719077,18.1313701 L16.5229667,0.867331765 L1.49320878,9.54149657 Z M4.50869432,11.2593018 L13.5257016,6.05526889 L13.5549391,16.4142002 L4.53793179,21.6184449 L4.50869432,11.2593018 Z" id="Fill-3" fill="url(#linearGradient-1)"></path>
                                <polygon id="Fill-4" fill="#22D09C" points="0 8.67403773 1.49322996 9.54151775 16.5229879 0.867352944 15.0297579 8.47148453e-05"></polygon>
                                <polygon id="Fill-5" fill="#22D09C" points="0.0490045532 25.9380125 1.54223452 26.8054925 1.49329352 9.54145421 6.35597318e-05 8.67397419"></polygon>
                            </g>
                            <path d="M6.91501361,6.98274729 L6.91430528,14.0167473 L14.3048103,15.7111814 L14.2945709,15.7178936 C14.3049703,15.7232543 14.3104316,15.7318778 14.3104316,15.7439501 C14.3104316,15.8405284 13.9609075,16.1212525 13.5297476,16.3709649 C13.1475832,16.5923008 12.8295551,16.7149818 12.762211,16.6727522 L12.7490636,16.6810074 L6.62930528,15.4047473 L3.99798861,21.5301375 L3.9476944,21.5600918 C3.98397168,21.559855 4.00418609,21.5706716 4.00523429,21.5937444 C4.01010094,21.7008684 3.59237328,22.0316244 3.06241896,22.3325086 C2.52164595,22.6333928 2.07897981,22.7904664 2.08349096,22.6833424 C2.0836001,22.6807507 2.08396554,22.6780281 2.08458233,22.6751782 L2.05330528,22.6939287 L5.36218682,14.7413554 L5.35926695,14.7413554 L5.35926695,6.98274729 L6.91501361,6.98274729 Z" id="Combined-Shape" fill="url(#linearGradient-2)"></path>
                            <g id="Group-4" transform="translate(1.275432, 2.715513)">
                                <polygon id="Fill-1" fill="#FBD961" points="0 6.34772461 1.37936389 7.14201212 1.38383666 5.56119572 0.00447277166 4.76671425"></polygon>
                                <polygon id="Fill-2" fill="#F8B859" points="1.383895 5.56111813 1.37942223 7.14193453 9.6030991 2.37523968 9.60757187 0.79442328"></polygon>
                                <polygon id="Fill-3" fill="#FBD961" points="8.22811075 5.81895607e-05 0.00462834633 4.76655908 1.38379776 5.56104054 9.6076691 0.794345694"></polygon>
                            </g>
                            <path d="M2.63671028,2.90947804 L3.80352028,2.90947804 L3.80352028,7.17671249 C3.80352028,7.28383652 3.54232097,7.37067769 3.22011528,7.37067769 C2.8979096,7.37067769 2.63671028,7.28383652 2.63671028,7.17671249 L2.63671028,7.17671249 L2.63671028,2.90947804 Z" id="Combined-Shape" fill="url(#linearGradient-3)"></path>
                            <path d="M7.30395028,0 L8.47076028,0 L8.47076028,4.46119966 C8.47076028,4.56832368 8.20956096,4.65516486 7.88735528,4.65516486 C7.56514959,4.65516486 7.30395028,4.56832368 7.30395028,4.46119966 L7.30395028,4.46119966 L7.30395028,0 Z" id="Combined-Shape" fill="url(#linearGradient-4)"></path>
                        </g>
                        <g id="轨道">
                            <polygon id="Fill-1" fill="#FBD961" points="1.37819865 64.3954259 1.37374423 65.9775497 3.8734118e-05 65.1827028 0.00449315768 63.6005791"></polygon>
                            <polygon id="Fill-4" fill="#F8B859" points="1.37819865 64.3954259 110.576649 0.794866272 110.572389 2.37699002 1.37374423 65.9775497"></polygon>
                            <polygon id="Fill-7" fill="#FBD961" points="0.00445442357 63.6005402 109.203099 -1.94101798e-05 110.576804 0.794827451 1.37815992 64.3953871"></polygon>
                        </g>
                        <g id="平衡器" transform="translate(97.045199, 3.327459)">
                            <polygon id="Fill-1" fill="#E8E9EC" points="7.13874953 9.51038894 7.16183555 17.6226727 16.587907 12.1882785 16.564821 4.0759947"></polygon>
                            <polygon id="Fill-2" fill="#DBDBDB" points="0.1384042 13.5467775 7.16170268 17.6226561 7.13878275 9.51037235 0.115318181 5.4346596"></polygon>
                            <polygon id="Fill-3" fill="#FFFFFF" points="9.54130656 0 0.115401224 5.43456009 7.13869971 9.51043869 16.5647711 4.0758786"></polygon>
                        </g>
                        <g id="控制室" transform="translate(64.081696, 18.878692)">
                            <polygon id="Fill-1" fill="#404057" points="6.64368177 12.9674995 6.66582664 20.7921482 22.0789695 11.8716775 22.056984 4.04686884"></polygon>
                            <polygon id="Fill-1-Copy" fill="#FFFFFF" points="9.13475576 16.7528525 9.13475576 17.5847173 20.3455924 10.6525103 20.3455924 6.90911848 13.840539 10.6525103"></polygon>
                            <polygon id="Fill-2-Copy" fill="#404057" points="0 16.9128265 6.66569918 20.7921322 6.6912534 17.2327745 0 13.3933983"></polygon>
                            <polygon id="Fill-3" fill="#5D5D75" points="15.319768 0.115491566 6.21330673 5.39469786 13.0163837 9.2880813 22.0569043 4.04685284"></polygon>
                            <polygon id="Combined-Shape" fill="#5D5D75" points="0 13.3933983 6.6912534 17.2327745 13.0638757 9.28187881 6.21330673 5.39469786"></polygon>
                            <polygon id="Combined-Shape-Copy" fill="#FFFFFF" points="1.93767546 12.8708165 6.54942369 15.5050552 11.0724312 9.6820013 6.54942369 7.04776262"></polygon>
                        </g>
                    </g>
                </g>
            </g>
        </g>
    </g>
</svg>