<?xml version="1.0" encoding="UTF-8"?>
<svg width="434px" height="293px" viewBox="0 0 434 293" version="1.1" xmlns="http://www.w3.org/2000/svg" xmlns:xlink="http://www.w3.org/1999/xlink">
    <!-- Generator: Sketch 61.1 (89650) - https://sketch.com -->
    <title>UI</title>
    <desc>Created with Sketch.</desc>
    <defs>
        <linearGradient x1="-12.4195318%" y1="83.9343009%" x2="104.106407%" y2="22.0272117%" id="linearGradient-1">
            <stop stop-color="#ECEFF2" offset="0%"></stop>
            <stop stop-color="#DCE2EF" offset="100%"></stop>
        </linearGradient>
        <polygon id="path-2" points="2.84217094e-14 47.5026768 82.3957445 -6.39488462e-14 82.3957445 26 2.84217094e-14 73.5026768"></polygon>
        <linearGradient x1="97.3324757%" y1="23.4430485%" x2="1.68564195%" y2="72.9471965%" id="linearGradient-4">
            <stop stop-color="#F6FAFF" offset="0%"></stop>
            <stop stop-color="#FFFFFF" offset="100%"></stop>
        </linearGradient>
        <linearGradient x1="108.963944%" y1="25.0441662%" x2="-16.6183045%" y2="76.9050642%" id="linearGradient-5">
            <stop stop-color="#E2E7F2" offset="0%"></stop>
            <stop stop-color="#EDF1F4" offset="100%"></stop>
        </linearGradient>
        <linearGradient x1="-7.35052305%" y1="92.6425125%" x2="99.712496%" y2="14.848842%" id="linearGradient-6">
            <stop stop-color="#ECEFF2" offset="0%"></stop>
            <stop stop-color="#DCE2EF" offset="100%"></stop>
        </linearGradient>
        <polygon id="path-7" points="57 32.5026768 0.923076923 0 0.923076923 26 57 58.5026768"></polygon>
        <linearGradient x1="94.167771%" y1="17.2253118%" x2="4.91599645%" y2="78.3197869%" id="linearGradient-9">
            <stop stop-color="#F6FAFF" offset="0%"></stop>
            <stop stop-color="#FFFFFF" offset="100%"></stop>
        </linearGradient>
        <linearGradient x1="108.963944%" y1="20.4536609%" x2="-16.6183045%" y2="81.854121%" id="linearGradient-10">
            <stop stop-color="#E2E7F2" offset="0%"></stop>
            <stop stop-color="#EDF1F4" offset="100%"></stop>
        </linearGradient>
        <linearGradient x1="100%" y1="50%" x2="0.767702312%" y2="50%" id="linearGradient-11">
            <stop stop-color="#13B886" offset="0%"></stop>
            <stop stop-color="#5EDA8C" offset="100%"></stop>
        </linearGradient>
    </defs>
    <g id="Page-1" stroke="none" stroke-width="1" fill="none" fill-rule="evenodd">
        <g id="首页-20191225" transform="translate(-726.000000, -289.000000)">
            <g id="section-01" transform="translate(0.000000, 80.000000)">
                <g id="插图" transform="translate(69.000000, 56.000000)">
                    <g id="UI" transform="translate(656.384615, 152.093333)">
                        <g id="factory" transform="translate(294.692308, 187.240000)">
                            <polygon id="Fill-1" fill="#898989" points="1 73.7612971 57.0488752 106.15994 57.1218589 80.3668782 1.07308241 47.9683347"></polygon>
                            <polygon id="Fill-2" fill="#C5C5C5" points="57.1218984 80.366898 57.048816 106.159959 139.322721 58.2902856 139.395804 32.4973232"></polygon>
                            <polygon id="Fill-3" fill="#F6F6F7" points="1.07306266 47.9683248 57.1219379 80.3668683 139.395745 32.4972935 83.3468693 0.0986511227"></polygon>
                            <g id="形状结合" transform="translate(57.000000, 32.666667)">
                                <mask id="mask-3" fill="white">
                                    <use xlink:href="#path-2"></use>
                                </mask>
                                <use id="蒙版" fill="url(#linearGradient-1)" xlink:href="#path-2"></use>
                                <path d="M82.3957445,24.8306268 L82.3957445,26.8306565 L-6.75015599e-13,75 L-6.75015599e-13,73 L82.3957445,24.8306268 Z M82.3957445,21.8306268 L82.3957445,23.8306565 L-6.75015599e-13,72 L-6.75015599e-13,70 L82.3957445,21.8306268 Z M82.3957445,18.8306268 L82.3957445,20.8306565 L-6.75015599e-13,69 L-6.75015599e-13,67 L82.3957445,18.8306268 Z M82.3957445,15.8306268 L82.3957445,17.8306565 L-6.75015599e-13,66 L-6.75015599e-13,64 L82.3957445,15.8306268 Z M82.3957445,12.8306268 L82.3957445,14.8306565 L-6.75015599e-13,63 L-6.75015599e-13,61 L82.3957445,12.8306268 Z M82.3957445,9.83062685 L82.3957445,11.8306565 L-6.75015599e-13,60 L-6.75015599e-13,58 L82.3957445,9.83062685 Z M82.3957445,6.83062685 L82.3957445,8.83065651 L-6.75015599e-13,57 L-6.75015599e-13,55 L82.3957445,6.83062685 Z M82.3957445,3.83062685 L82.3957445,5.83065651 L-6.75015599e-13,54 L-6.75015599e-13,52 L82.3957445,3.83062685 Z M82.3957445,0.830626848 L82.3957445,2.83065651 L-6.75015599e-13,51 L-6.75015599e-13,49 L82.3957445,0.830626848 Z" fill="url(#linearGradient-4)" mask="url(#mask-3)"></path>
                                <path d="M14.3851682,55.9516602 L14.3851682,65.9516602 L6.94504958,70.1621094 L6.94504958,60.1621094 L14.3851682,55.9516602 Z M27.3631955,49 L27.3631955,59 L19.9230769,63.2104492 L19.9230769,53.2104492 L27.3631955,49 Z M40.3631955,41 L40.3631955,51 L32.9230769,55.2104492 L32.9230769,45.2104492 L40.3631955,41 Z M53.3631955,34 L53.3631955,44 L45.9230769,48.2104492 L45.9230769,38.2104492 L53.3631955,34 Z M66.3631955,26 L66.3631955,36 L58.9230769,40.2104492 L58.9230769,30.2104492 L66.3631955,26 Z M79.3631955,19 L79.3631955,29 L71.9230769,33.2104492 L71.9230769,23.2104492 L79.3631955,19 Z" fill="url(#linearGradient-5)" mask="url(#mask-3)"></path>
                                <path d="M7.38516815,47.9516602 L7.38516815,57.9516602 L-0.0549504207,62.1621094 L-0.0549504207,52.1621094 L7.38516815,47.9516602 Z M20.3631955,41 L20.3631955,51 L12.9230769,55.2104492 L12.9230769,45.2104492 L20.3631955,41 Z M33.3631955,33 L33.3631955,43 L25.9230769,47.2104492 L25.9230769,37.2104492 L33.3631955,33 Z M46.3631955,26 L46.3631955,36 L38.9230769,40.2104492 L38.9230769,30.2104492 L46.3631955,26 Z M59.3631955,18 L59.3631955,28 L51.9230769,32.2104492 L51.9230769,22.2104492 L59.3631955,18 Z M72.3631955,10 L72.3631955,20 L64.9230769,24.2104492 L64.9230769,14.2104492 L72.3631955,10 Z M85.3631955,3 L85.3631955,13 L77.9230769,17.2104492 L77.9230769,7.21044922 L85.3631955,3 Z" id="形状结合备份" fill="#FFFFFF" mask="url(#mask-3)"></path>
                            </g>
                            <g id="形状结合备份-2" transform="translate(0.000000, 47.666667)">
                                <mask id="mask-8" fill="white">
                                    <use xlink:href="#path-7"></use>
                                </mask>
                                <use id="蒙版" fill="url(#linearGradient-6)" xlink:href="#path-7"></use>
                                <path d="M0.332460344,23.337411 L57,56 L57,58 L0.332460344,25.337411 L0.332460344,23.337411 Z M0.332460344,20.337411 L57,53 L57,55 L0.332460344,22.337411 L0.332460344,20.337411 Z M0.332460344,17.337411 L57,50 L57,52 L0.332460344,19.337411 L0.332460344,17.337411 Z M0.332460344,14.337411 L57,47 L57,49 L0.332460344,16.337411 L0.332460344,14.337411 Z M0.332460344,11.337411 L57,44 L57,46 L0.332460344,13.337411 L0.332460344,11.337411 Z M0.332460344,8.33741098 L57,41 L57,43 L0.332460344,10.337411 L0.332460344,8.33741098 Z M0.332460344,5.33741098 L57,38 L57,40 L0.332460344,7.33741098 L0.332460344,5.33741098 Z M0.332460344,2.33741098 L57,35 L57,37 L0.332460344,4.33741098 L0.332460344,2.33741098 Z M0.332460344,-0.662589024 L57,32 L57,34 L0.332460344,1.33741098 L0.332460344,-0.662589024 Z" id="形状结合" fill="url(#linearGradient-9)" mask="url(#mask-8)"></path>
                                <path d="M50.4628049,44 L50.4628049,54 L42.5988582,49.6687055 L42.5988582,39.6687055 L50.4628049,44 Z M36.4628049,36 L36.4628049,46 L28.5988582,41.6687055 L28.5988582,31.6687055 L36.4628049,36 Z M22.4628049,28 L22.4628049,38 L14.5988582,33.6687055 L14.5988582,23.6687055 L22.4628049,28 Z M8.46280487,20 L8.46280487,30 L0.598858173,25.6687055 L0.598858173,15.6687055 L8.46280487,20 Z" id="形状" fill="url(#linearGradient-10)" mask="url(#mask-8)"></path>
                                <path d="M46.5308315,30.8343527 L56.9450496,37.1621094 L56.9450496,47.1621094 L46.5308315,40.8343527 L46.5308315,30.8343527 Z M29.9230769,21 L40.337295,27.3277566 L40.337295,37.3277566 L29.9230769,31 L29.9230769,21 Z M14.9230769,12 L25.337295,18.3277566 L25.337295,28.3277566 L14.9230769,22 L14.9230769,12 Z M-1.07692308,3 L9.33729498,9.32775663 L9.33729498,19.3277566 L-1.07692308,13 L-1.07692308,3 Z" id="形状结合备份" fill="#FFFFFF" mask="url(#mask-8)"></path>
                            </g>
                            <g id="UI" transform="translate(37.923077, 14.666667)">
                                <g id="Group-66" transform="translate(0.000000, 0.117899)">
                                    <polygon id="Fill-1" fill="#F16924" points="33.7370667 3.9641 33.7233474 8.83481951 13.9007509 20.3755146 13.9144702 15.5041976"></polygon>
                                    <path d="M0.0137192982,20.7377561 C0.00656140351,23.3670244 2.15273684,25.8008902 5.96789474,28.0070854 C14.2316842,32.7869756 24.3201404,33.2118415 34.7933333,27.1149268 L34.779614,31.9856463 C24.3064211,38.0831585 14.2179649,37.6582927 5.95357895,32.8784024 C2.15275031,30.6795544 0.00772437424,28.2552652 0,25.6368648 L0,25.6084756 L0.0137192982,20.7377561 Z M13.9143509,15.5043171 L13.9006316,20.3756341 L8.37533333,26.4486463 L8.38905263,21.5767317 C8.39382456,19.7637317 10.1272281,17.7093171 13.9143509,15.5043171 Z" id="Combined-Shape" fill="#F16924"></path>
                                    <polygon id="Fill-28" fill="#F16924" points="54.2146702 15.8079378 54.2009509 20.6792549 34.7791965 31.9857061 34.7929158 27.1149866"></polygon>
                                    <path d="M54.2146702,15.8079378 L34.7929158,27.1149866 C24.3203193,33.2119012 14.2318632,32.7870354 5.96747719,28.0071451 C-1.92708421,23.4405841 -2.6756807,17.9011939 8.0206,11.674011 L27.4799333,0.344852439 L33.7371263,3.96427927 L13.9145298,15.5043768 C7.27021404,19.372389 6.94810877,22.777889 11.1867754,25.2296817 C15.6884947,27.8332549 21.4607404,27.6151451 28.1348807,23.7292061 L47.9574772,12.1891085 L54.2146702,15.8079378 Z" id="Fill-64" fill="#FB8346"></path>
                                </g>
                                <g id="Group-75" transform="translate(26.842105, 19.837411)">
                                    <polygon id="Fill-67" fill="#FB8346" points="40.7554421 3.82929024 6.75544211 23.6229 0.498249123 20.0034732 34.4982491 0.209863415"></polygon>
                                    <polygon id="Fill-70" fill="#F16924" points="40.7554421 3.82929024 40.7417228 8.70000976 6.74172281 28.4936195 6.75544211 23.6229"></polygon>
                                    <polygon id="Fill-73" fill="#F16924" points="6.75544211 23.6229 6.74172281 28.4936195 0.484529825 24.8753878 0.498249123 20.0034732"></polygon>
                                </g>
                            </g>
                        </g>
                        <g id="server">
                            <g id="Group-26">
                                <g id="Group-4-Copy-4" transform="translate(0.615385, 43.906667)">
                                    <polygon id="Fill-1" fill="#F6F6F7" points="48.4566343 6.55521373e-14 -7.4884543e-14 28.1705284 84.542949 77 133 48.8294716"></polygon>
                                    <polygon id="Fill-2" fill="#D1D3DD" points="84.0474206 77.0703269 84 94 131.952167 65.9292578 132 49"></polygon>
                                    <path d="M89,80.3271957 C90.1045695,79.6447811 91,80.0643725 91,81.2643792 C91,82.4643859 90.1045695,83.9903898 89,84.6728043 C87.8954305,85.3552189 87,84.9356275 87,83.7356208 C87,82.5356141 87.8954305,81.0096102 89,80.3271957 Z M98,75.3271957 C99.1045695,74.6447811 100,75.0643725 100,76.2643792 C100,77.4643859 99.1045695,78.9903898 98,79.6728043 C96.8954305,80.3552189 96,79.9356275 96,78.7356208 C96,77.5356141 96.8954305,76.0096102 98,75.3271957 Z M107,70.3271957 C108.104569,69.6447811 109,70.0643725 109,71.2643792 C109,72.4643859 108.104569,73.9903898 107,74.6728043 C105.895431,75.3552189 105,74.9356275 105,73.7356208 C105,72.5356141 105.895431,71.0096102 107,70.3271957 Z M116,65.3271957 C117.104569,64.6447811 118,65.0643725 118,66.2643792 C118,67.4643859 117.104569,68.9903898 116,69.6728043 C114.895431,70.3552189 114,69.9356275 114,68.7356208 C114,67.5356141 114.895431,66.0096102 116,65.3271957 Z" id="Combined-Shape" fill="#F3F3F3"></path>
                                    <polygon id="Fill-3" fill="#FFFFFF" points="0 45.0365998 83.9520017 94 84 76.9634002 0.047584566 28"></polygon>
                                    <path d="M3,42 L82,87.2676636 L82,90 L3,44.7323364 L3,42 Z M3,37 L82,82.2676636 L82,85 L3,39.7323364 L3,37 Z M3,33 L82,78.2676636 L82,81 L3,35.7323364 L3,33 Z" id="Combined-Shape" fill="#DEE2EF"></path>
                                    <path d="M123,57.8679835 L124,57 L124,68.1320165 L123,69 L123,57.8679835 Z M126,55.8679835 L127,55 L127,66.1320165 L126,67 L126,55.8679835 Z M129,53.8679835 L130,53 L130,64.1320165 L129,65 L129,53.8679835 Z" id="Combined-Shape" fill="#F3F3F3"></path>
                                </g>
                                <g id="Group-4-Copy-3" transform="translate(0.615385, 22.906667)">
                                    <polygon id="Fill-1" fill="#F6F6F7" points="48.4566343 6.55521373e-14 -7.4884543e-14 28.1705284 84.542949 77 133 48.8294716"></polygon>
                                    <polygon id="Fill-2" fill="#D1D3DD" points="84.0474206 77.0703269 84 94 131.952167 65.9292578 132 49"></polygon>
                                    <path d="M89,80.3271957 C90.1045695,79.6447811 91,80.0643725 91,81.2643792 C91,82.4643859 90.1045695,83.9903898 89,84.6728043 C87.8954305,85.3552189 87,84.9356275 87,83.7356208 C87,82.5356141 87.8954305,81.0096102 89,80.3271957 Z M98,75.3271957 C99.1045695,74.6447811 100,75.0643725 100,76.2643792 C100,77.4643859 99.1045695,78.9903898 98,79.6728043 C96.8954305,80.3552189 96,79.9356275 96,78.7356208 C96,77.5356141 96.8954305,76.0096102 98,75.3271957 Z M107,70.3271957 C108.104569,69.6447811 109,70.0643725 109,71.2643792 C109,72.4643859 108.104569,73.9903898 107,74.6728043 C105.895431,75.3552189 105,74.9356275 105,73.7356208 C105,72.5356141 105.895431,71.0096102 107,70.3271957 Z M116,65.3271957 C117.104569,64.6447811 118,65.0643725 118,66.2643792 C118,67.4643859 117.104569,68.9903898 116,69.6728043 C114.895431,70.3552189 114,69.9356275 114,68.7356208 C114,67.5356141 114.895431,66.0096102 116,65.3271957 Z" id="Combined-Shape" fill="#F3F3F3"></path>
                                    <polygon id="Fill-3" fill="#FFFFFF" points="0 45.0365998 83.9520017 94 84 76.9634002 0.047584566 28"></polygon>
                                    <path d="M3,42 L82,87.2676636 L82,90 L3,44.7323364 L3,42 Z M3,37 L82,82.2676636 L82,85 L3,39.7323364 L3,37 Z M3,33 L82,78.2676636 L82,81 L3,35.7323364 L3,33 Z" id="Combined-Shape" fill="#DEE2EF"></path>
                                    <path d="M123,57.8679835 L124,57 L124,68.1320165 L123,69 L123,57.8679835 Z M126,55.8679835 L127,55 L127,66.1320165 L126,67 L126,55.8679835 Z M129,53.8679835 L130,53 L130,64.1320165 L129,65 L129,53.8679835 Z" id="Combined-Shape" fill="#F3F3F3"></path>
                                </g>
                                <g id="Group-4-Copy-2" transform="translate(0.615385, 0.906667)">
                                    <polygon id="Fill-1" fill="#F6F6F7" points="48.4566343 8.70871843e-15 -7.4884543e-14 28.1705284 84.542949 77 133 48.8294716"></polygon>
                                    <polygon id="Fill-2" fill="#D1D3DD" points="84.0474206 77.0703269 84 94 131.952167 65.9292578 132 49"></polygon>
                                    <path d="M89,80.3271957 C90.1045695,79.6447811 91,80.0643725 91,81.2643792 C91,82.4643859 90.1045695,83.9903898 89,84.6728043 C87.8954305,85.3552189 87,84.9356275 87,83.7356208 C87,82.5356141 87.8954305,81.0096102 89,80.3271957 Z M98,75.3271957 C99.1045695,74.6447811 100,75.0643725 100,76.2643792 C100,77.4643859 99.1045695,78.9903898 98,79.6728043 C96.8954305,80.3552189 96,79.9356275 96,78.7356208 C96,77.5356141 96.8954305,76.0096102 98,75.3271957 Z M107,70.3271957 C108.104569,69.6447811 109,70.0643725 109,71.2643792 C109,72.4643859 108.104569,73.9903898 107,74.6728043 C105.895431,75.3552189 105,74.9356275 105,73.7356208 C105,72.5356141 105.895431,71.0096102 107,70.3271957 Z M116,65.3271957 C117.104569,64.6447811 118,65.0643725 118,66.2643792 C118,67.4643859 117.104569,68.9903898 116,69.6728043 C114.895431,70.3552189 114,69.9356275 114,68.7356208 C114,67.5356141 114.895431,66.0096102 116,65.3271957 Z" id="Combined-Shape" fill="#F3F3F3"></path>
                                    <polygon id="Fill-3" fill="#FFFFFF" points="0 45.0365998 83.9520017 94 84 76.9634002 0.047584566 28"></polygon>
                                    <path d="M3,42 L82,87.2676636 L82,90 L3,44.7323364 L3,42 Z M3,37 L82,82.2676636 L82,85 L3,39.7323364 L3,37 Z M3,33 L82,78.2676636 L82,81 L3,35.7323364 L3,33 Z" id="Combined-Shape" fill="#DEE2EF"></path>
                                    <path d="M123,57.8679835 L124,57 L124,68.1320165 L123,69 L123,57.8679835 Z M126,55.8679835 L127,55 L127,66.1320165 L126,67 L126,55.8679835 Z M129,53.8679835 L130,53 L130,64.1320165 L129,65 L129,53.8679835 Z" id="Combined-Shape" fill="#F3F3F3"></path>
                                </g>
                            </g>
                            <g id="Group-28" transform="translate(41.000000, 22.000000)">
                                <g id="Group-11" transform="translate(0.000000, 0.010732)">
                                    <polygon id="Fill-1" fill="#0B9B6F" points="30.1167246 6.16347068 30.1135284 7.28025324 24.532493 10.5241972 24.5356892 9.4071863"></polygon>
                                    <polygon id="Fill-3" fill="#0B9B6F" points="24.5356207 9.4071863 24.5324245 10.5241972 9.4193842 6.64639751 9.42280871 5.52984328"></polygon>
                                    <path d="M42.5328048,13.3327992 L53.0907923,28.0320415 L48.4261554,30.7430535 L23.0320561,24.6670804 L28.5799879,21.4427732 L43.6957678,25.3201162 L36.9517693,16.5767431 L42.5328048,13.3327992 Z M39.7857098,9.25143954 L43.0725529,11.1495817 L13.427269,21.6328614 L10.1726162,19.7534427 L39.7857098,9.25143954 Z M4.7093839,0.0950326933 L30.1167246,6.16347068 L24.5356892,9.4071863 L9.4226489,5.52984328 L16.1639078,14.2732164 L10.6159759,17.4977519 L0.0449752098,2.80604463 L4.7093839,0.0950326933 Z" id="Combined-Shape" fill="url(#linearGradient-11)"></path>
                                    <polygon id="Fill-7" fill="#0B9B6F" points="16.1638621 14.2731251 16.1606659 15.3899076 10.6129623 18.6144432 10.6159303 17.4976606"></polygon>
                                    <polygon id="Fill-9" fill="#0B9B6F" points="10.6159759 17.4976606 10.6127797 18.6144432 0.041779002 3.92296419 0.0449752098 2.8059533"></polygon>
                                </g>
                                <g id="Group-18" transform="translate(10.045225, 10.753856)">
                                    <path d="M12.9837267,15.040739 L12.9869229,13.9239564 L38.3809537,19.9999294 L43.0455906,17.2889175 L43.0423944,18.4057001 L38.3779858,21.1169403 L12.9837267,15.040739 Z M33.0273284,0.406457706 L33.0241322,1.52324027 L3.37907655,12.00652 L3.38204446,10.8897374 L33.0273284,0.406457706 Z" id="Combined-Shape" fill="#0B9B6F"></path>
                                    <polygon id="Fill-16" fill="#898989" points="3.38215861 10.8897602 3.3789624 12.0065428 0.124081353 10.1268957 0.127277561 9.01034146"></polygon>
                                </g>
                                <g id="Group-27" transform="translate(36.830056, 16.473627)" fill="#0B9B6F">
                                    <polygon id="Fill-19" points="6.86564358 8.85722055 6.86244738 9.97423145 0.118220614 1.23062999 0.121645122 0.113847431"></polygon>
                                </g>
                            </g>
                        </g>
                    </g>
                </g>
            </g>
        </g>
    </g>
</svg>