<?xml version="1.0" encoding="utf-8"?>
<!-- Generator: Adobe Illustrator 22.1.0, SVG Export Plug-In . SVG Version: 6.00 Build 0)  -->
<svg version="1.1" id="图层_1" xmlns="http://www.w3.org/2000/svg" xmlns:xlink="http://www.w3.org/1999/xlink" x="0px" y="0px"
	 viewBox="0 0 24 24" style="enable-background:new 0 0 24 24;" xml:space="preserve">
<style type="text/css">
	.st0{display:none;}
	.st1{display:inline;fill:none;stroke:#FF0000;stroke-width:1.000000e-02;stroke-miterlimit:10;}
	.st2{display:inline;fill:none;}
	.st3{fill:#13B886;}
</style>
<title>DBox #3</title>
<g class="st0">
	<circle class="st1" cx="12" cy="12" r="10"/>
	<line class="st1" x1="24" y1="0" x2="0" y2="24"/>
	<line class="st1" x1="0" y1="0" x2="24" y2="24"/>
	<line class="st1" x1="0" y1="12" x2="24" y2="12"/>
	<line class="st1" x1="12" y1="24" x2="12" y2="0"/>
	<path class="st1" d="M5,3h14c1.1,0,2,0.9,2,2v14c0,1.1-0.9,2-2,2H5c-1.1,0-2-0.9-2-2V5C3,3.9,3.9,3,5,3z"/>
	<path class="st1" d="M6,2h12c1.1,0,2,0.9,2,2v16c0,1.1-0.9,2-2,2H6c-1.1,0-2-0.9-2-2V4C4,2.9,4.9,2,6,2z"/>
	<path class="st1" d="M2,18V6c0-1.1,0.9-2,2-2h16c1.1,0,2,0.9,2,2v12c0,1.1-0.9,2-2,2H4C2.9,20,2,19.1,2,18z"/>
	<circle class="st1" cx="12" cy="12" r="5"/>
	<rect class="st2" width="24" height="24"/>
</g>
<path class="st3" d="M21.8,11l-4-7c-0.4-0.6-1-1-1.7-1H8C7.2,3,6.6,3.4,6.2,4l-4,7c-0.4,0.6-0.4,1.4,0,2l4,7c0.4,0.6,1,1,1.7,1H16
	c0.7,0,1.4-0.4,1.7-1l4-7C22.2,12.4,22.2,11.6,21.8,11z M8,5h6.6l-3.5,6H4.5L8,5z M4,11.9v0.3L3.9,12L4,11.9z M8,19l-3.5-6h7.2
	l3.5,6H8z M16.8,17.7l-3.6-6.3l3.3-5.7l3.6,6.3L16.8,17.7z"/>
</svg>
